<svg xmlns="http://www.w3.org/2000/svg" version="1.1" id="svg6485" viewBox="0 0 32 32" height="32" width="32"><g transform="translate(0 -1020.362)" id="layer1"><g transform="translate(-892.48 -58.873)" id="g15522" color="#000" font-style="normal" font-variant="normal" font-weight="400" font-stretch="normal" font-size="medium" font-family="sans-serif" letter-spacing="normal" word-spacing="normal" direction="ltr" writing-mode="lr-tb" text-anchor="start" clip-rule="nonzero" visibility="visible" color-interpolation="sRGB" color-interpolation-filters="linearRGB" fill-opacity="1" fill-rule="nonzero" stroke="none" stroke-width="1" stroke-linecap="round" stroke-linejoin="round" stroke-miterlimit="4" stroke-dasharray="none" stroke-dashoffset="0" stroke-opacity="1" color-rendering="auto" image-rendering="auto" shape-rendering="auto" text-rendering="auto"><path id="path12558" d="M897.713 1081.36a.5.5 0 00-.055 0 5.003 5.003 0 00-4.437 3.683 4.997 4.997 0 002 5.408.5.5 0 00.767-.281l2.192-8.184a.5.5 0 00-.467-.63zm-.75 1.312l-1.69 6.3c-.932-.992-1.45-2.313-1.087-3.667.365-1.354 1.473-2.24 2.777-2.633z" style="line-height:normal;text-indent:0;text-align:start;text-decoration-line:none;text-decoration-style:solid;text-decoration-color:#000;text-transform:none;block-progression:tb;white-space:normal;isolation:auto;mix-blend-mode:normal;solid-color:#000;solid-opacity:1" text-decoration="none" baseline-shift="baseline" display="inline" overflow="visible" opacity="1" fill="#576d7e"/><path id="path12568" d="M909.992 1093.781a.5.5 0 00-.492.506v13.578c0 .286-.214.5-.5.5a.488.488 0 01-.5-.5v-13.572a.5.5 0 10-1 0v13.572c0 .823.678 1.5 1.5 1.5s1.5-.677 1.5-1.5v-13.578a.5.5 0 00-.508-.506z" style="line-height:normal;text-indent:0;text-align:start;text-decoration-line:none;text-decoration-style:solid;text-decoration-color:#000;text-transform:none;block-progression:tb;white-space:normal;isolation:auto;mix-blend-mode:normal;solid-color:#000;solid-opacity:1" text-decoration="none" baseline-shift="baseline" display="inline" overflow="visible" opacity="1" fill="#576d7e"/><path id="path12570" d="M906.91 1092.984a.5.5 0 00-.44.256l-6.773 11.73a1.507 1.507 0 00.551 2.05 1.508 1.508 0 002.049-.55l6.137-10.628a.5.5 0 10-.868-.5l-6.136 10.629a.487.487 0 01-.682.183.49.49 0 01-.184-.683l6.772-11.73a.5.5 0 00-.426-.757z" style="line-height:normal;text-indent:0;text-align:start;text-decoration-line:none;text-decoration-style:solid;text-decoration-color:#000;text-transform:none;block-progression:tb;white-space:normal;isolation:auto;mix-blend-mode:normal;solid-color:#000;solid-opacity:1" text-decoration="none" baseline-shift="baseline" display="inline" overflow="visible" opacity="1" fill="#576d7e"/><path id="path12572" d="M911.08 1092.996a.5.5 0 00-.41.756l6.766 11.719a.49.49 0 01-.184.683.487.487 0 01-.682-.183l-6.136-10.63a.5.5 0 10-.868.5l6.137 10.63c.41.711 1.336.96 2.049.549a1.507 1.507 0 00.55-2.05l-6.765-11.718a.5.5 0 00-.457-.256z" style="line-height:normal;text-indent:0;text-align:start;text-decoration-line:none;text-decoration-style:solid;text-decoration-color:#000;text-transform:none;block-progression:tb;white-space:normal;isolation:auto;mix-blend-mode:normal;solid-color:#000;solid-opacity:1" text-decoration="none" baseline-shift="baseline" display="inline" overflow="visible" opacity="1" fill="#576d7e"/><path id="path12552" d="M899.42 1082.59a.5.5 0 00-.465.369l-1.81 6.762a.5.5 0 00.353.613l5.795 1.553a1.509 1.509 0 001.838-1.06l1.293-4.83a1.51 1.51 0 00-1.06-1.839l-5.796-1.552a.5.5 0 00-.148-.016zm.373 1.111l5.312 1.424a.487.487 0 01.354.611l-1.295 4.83a.487.487 0 01-.611.354l-5.313-1.424 1.553-5.795z" style="line-height:normal;text-indent:0;text-align:start;text-decoration-line:none;text-decoration-style:solid;text-decoration-color:#000;text-transform:none;block-progression:tb;white-space:normal;isolation:auto;mix-blend-mode:normal;solid-color:#000;solid-opacity:1" text-decoration="none" baseline-shift="baseline" display="inline" overflow="visible" opacity="1" fill="#f15d4b"/><path id="rect12554" d="M897.895 1081.121a.5.5 0 00-.612.354l-2.33 8.693a.5.5 0 00.354.613l1.932.517a.5.5 0 00.612-.353l2.33-8.694a.5.5 0 00-.354-.612l-1.932-.518zm.225 1.096l.966.258-2.071 7.728-.966-.259 2.07-7.727z" style="line-height:normal;text-indent:0;text-align:start;text-decoration-line:none;text-decoration-style:solid;text-decoration-color:#000;text-transform:none;block-progression:tb;white-space:normal;isolation:auto;mix-blend-mode:normal;solid-color:#000;solid-opacity:1" text-decoration="none" baseline-shift="baseline" display="inline" overflow="visible" opacity="1" fill="#f15d4b"/><path id="path12556" d="M905.922 1085.367a.5.5 0 00-.463.37l-1.295 4.83a.5.5 0 00.354.613l1.845.494a.5.5 0 10.258-.967l-1.361-.365 1.035-3.864 8.693 2.33-1.035 3.864-2.271-.608a.5.5 0 10-.258.965l2.27.608a1.006 1.006 0 001.224-.707l1.035-3.862a.5.5 0 00.002 0 1.012 1.012 0 00-.709-1.226l-9.176-2.461a.5.5 0 00-.148-.016z" style="line-height:normal;text-indent:0;text-align:start;text-decoration-line:none;text-decoration-style:solid;text-decoration-color:#000;text-transform:none;block-progression:tb;white-space:normal;isolation:auto;mix-blend-mode:normal;solid-color:#000;solid-opacity:1" text-decoration="none" baseline-shift="baseline" display="inline" overflow="visible" opacity="1" fill="#f15d4b"/><path id="path12560" d="M921.248 1089.99a.5.5 0 00-.465.371l-1.035 3.864a.5.5 0 00.354.613l1.449.387a1.006 1.006 0 001.224-.707l.778-2.897a1.01 1.01 0 00-.707-1.225l-1.45-.388a.5.5 0 00-.148-.018zm.373 1.113l.965.258-.775 2.899a.5.5 0 00-.002 0l-.965-.26.777-2.897z" style="line-height:normal;text-indent:0;text-align:start;text-decoration-line:none;text-decoration-style:solid;text-decoration-color:#000;text-transform:none;block-progression:tb;white-space:normal;isolation:auto;mix-blend-mode:normal;solid-color:#000;solid-opacity:1" text-decoration="none" baseline-shift="baseline" display="inline" overflow="visible" opacity="1" fill="#f15d4b"/><path id="path12562" d="M915.322 1088.92a.5.5 0 00-.463.371l-.777 2.899a.5.5 0 00.354.61l5.312 1.425a1.008 1.008 0 001.225-.705l.517-1.932a.5.5 0 00.002 0 1.01 1.01 0 00-.707-1.225.5.5 0 00-.002 0l-5.312-1.424a.5.5 0 00-.149-.018zm.373 1.113l4.828 1.293h.002l-.517 1.93-4.83-1.295.517-1.932z" style="line-height:normal;text-indent:0;text-align:start;text-decoration-line:none;text-decoration-style:solid;text-decoration-color:#000;text-transform:none;block-progression:tb;white-space:normal;isolation:auto;mix-blend-mode:normal;solid-color:#000;solid-opacity:1" text-decoration="none" baseline-shift="baseline" display="inline" overflow="visible" opacity="1" fill="#f15d4b"/><path id="circle12564" transform="translate(0 1020.362)" d="M909.17 68.498a3.02 3.02 0 00-3.086 2.227 3.017 3.017 0 002.129 3.685c1.6.429 3.257-.529 3.685-2.129a3.017 3.017 0 00-2.728-3.783zm-.063.998c.134.008.27.03.405.067a2.001 2.001 0 011.42 2.46 2.001 2.001 0 01-2.461 1.42 2.002 2.002 0 01-1.422-2.46 2.001 2.001 0 012.058-1.487zm-.123 1.256a.75.75 0 00-.718.557.75.75 0 00.53.918.75.75 0 00.919-.53.75.75 0 00-.531-.918.75.75 0 00-.2-.027z" style="line-height:normal;text-indent:0;text-align:start;text-decoration-line:none;text-decoration-style:solid;text-decoration-color:#000;text-transform:none;block-progression:tb;white-space:normal;isolation:auto;mix-blend-mode:normal;solid-color:#000;solid-opacity:1" text-decoration="none" baseline-shift="baseline" display="inline" overflow="visible" opacity="1" fill="#f8b84e"/></g></g><style type="text/css" id="style5178"></style></svg>