<svg xmlns="http://www.w3.org/2000/svg" width="32" height="32" viewBox="0 0 32 32"><path d="M27.766 13.988a12.375 12.375 0 01-12.375 12.375A12.375 12.375 0 013.016 13.988 12.375 12.375 0 0115.391 1.613a12.375 12.375 0 0112.375 12.375z" fill="#ffcc71"/><g fill="#3a3640" color="#000" font-weight="400" font-family="sans-serif"><g fill-rule="evenodd"><path d="M8.535 20.682l-3.607.453a.5.5 0 10.125.993l3.607-.453a4.44 4.44 0 012.762.554l3.156 1.809a.5.5 0 00.249.066h3.76c.555 0 .998.438 1.005.998a.5.5 0 000 .01l.01.404a.96.96 0 01-.969.985h-5.726a.5.5 0 100 1h5.726a1.98 1.98 0 001.97-1.999.5.5 0 000-.01l-.01-.402a2.016 2.016 0 00-2.007-1.986h-3.625l-3.04-1.742a5.444 5.444 0 00-3.386-.68z" style="line-height:normal;text-indent:0;text-align:start;text-decoration-line:none;text-decoration-style:solid;text-decoration-color:#000;text-transform:none;white-space:normal;isolation:auto;mix-blend-mode:normal;solid-color:#000;solid-opacity:1" overflow="visible"/><path d="M26.51 23.593a2.127 2.127 0 00-1.294.057c-1.114.385-2.21.783-3.31 1.172a.5.5 0 10.333.943c1.105-.39 2.199-.788 3.303-1.17.237-.082.483-.103.69-.043.206.06.403.189.593.534.199.36-.01 1.115-.492 1.332L19 29.685a9.384 9.384 0 01-5.978.565l-7.9-1.865a.5.5 0 10-.23.972l7.901 1.865c2.214.523 4.537.304 6.615-.623l7.332-3.27c1.065-.474 1.49-1.768.961-2.726-.295-.535-.73-.876-1.19-1.01z" style="line-height:normal;text-indent:0;text-align:start;text-decoration-line:none;text-decoration-style:solid;text-decoration-color:#000;text-transform:none;white-space:normal;isolation:auto;mix-blend-mode:normal;solid-color:#000;solid-opacity:1" overflow="visible"/></g><path style="line-height:normal;text-indent:0;text-align:start;text-decoration-line:none;text-decoration-style:solid;text-decoration-color:#000;text-transform:none;white-space:normal;isolation:auto;mix-blend-mode:normal;solid-color:#000;solid-opacity:1" d="M14.91 13.505c-.77 0-1.538.292-2.122.877a3.011 3.011 0 000 4.247 3.011 3.011 0 004.247 0 3.011 3.011 0 000-4.247 2.997 2.997 0 00-2.125-.877zm0 .994a2 2 0 011.418.59 1.997 1.997 0 010 2.833 1.997 1.997 0 01-2.833 0 1.997 1.997 0 010-2.833c.393-.394.904-.59 1.415-.59zM22.983.5a5.983 5.983 0 00-4.244 1.756 6.01 6.01 0 000 8.489 6.01 6.01 0 008.49 0 6.01 6.01 0 000-8.489A5.988 5.988 0 0022.983.5zm0 .994c1.28 0 2.56.49 3.539 1.47a4.995 4.995 0 010 7.074 4.996 4.996 0 01-7.076 0 4.995 4.995 0 010-7.075 4.985 4.985 0 013.537-1.469z" overflow="visible"/><path d="M22.983 3a3.498 3.498 0 00-3.502 3.5.5.5 0 101 0c0-.641.242-1.278.733-1.77a2.494 2.494 0 013.538 0 2.495 2.495 0 010 3.54 2.494 2.494 0 01-3.538 0 .5.5 0 10-.707.707 3.51 3.51 0 004.952 0 3.51 3.51 0 000-4.953A3.492 3.492 0 0022.983 3z" style="line-height:normal;text-indent:0;text-align:start;text-decoration-line:none;text-decoration-style:solid;text-decoration-color:#000;text-transform:none;white-space:normal;isolation:auto;mix-blend-mode:normal;solid-color:#000;solid-opacity:1" overflow="visible"/></g></svg>