<svg width="300" height="274" viewBox="0 0 300 274" fill="none" xmlns="http://www.w3.org/2000/svg"><g clip-path="url(#clip0)"><path opacity=".07" d="M224.444 196.239c-.923 0 32.035-71.384-3.35-61.23-35.385 10.153-41.162 13.196-35.077-10.906 6.086-24.103-12.513-79.898-41.47-42.086s-69.23 14.633-74.12 35.692c-4.889 21.06 18.291 25.915 3.658 35.077-14.632 9.163-5.504 43.453-5.504 43.453h155.863z" fill="#2A94F4"/><path d="M256.479 204.171H43.214a3.196 3.196 0 01-3.18-3.18v-2.769a3.195 3.195 0 013.18-3.179h213.231a3.195 3.195 0 013.179 3.179v2.769c.034 1.778-1.402 3.18-3.145 3.18z" fill="#D3D3D3"/><path d="M107.932 177.47h-15.18v17.88h15.18v-17.88z" fill="#FFBE55"/><path d="M93.197 193.675c-3.453 0-6.291-2.803-6.291-6.29a6.274 6.274 0 016.29-6.291 6.274 6.274 0 016.291 6.291 6.274 6.274 0 01-6.29 6.29zm0-11.179a4.924 4.924 0 00-4.924 4.923 4.903 4.903 0 004.924 4.923 4.903 4.903 0 004.923-4.923 4.924 4.924 0 00-4.923-4.923z" fill="#FFBE55"/><path opacity=".41" d="M102.735 176.308a.488.488 0 01-.41-.205c-.069-.103-1.641-2.223-1.163-4.547.274-1.334 1.163-2.462 2.599-3.317 1.709-.991 1.812-1.641 1.777-1.846-.068-.547-1.162-1.026-1.675-1.162a.511.511 0 01.24-.992c.239.069 2.222.65 2.427 2.017.137.958-.615 1.881-2.291 2.872-1.196.718-1.914 1.607-2.119 2.633-.376 1.88.991 3.692.991 3.726.171.239.137.547-.102.718a.392.392 0 01-.274.103zM97.094 175.795a.556.556 0 01-.513-.376.51.51 0 01.376-.616c.752-.17.855-.376.855-.376 0-.136-.171-.649-2.974-2.29-.787-.445-.89-.992-.89-1.368.103-1.709 3.864-3.384 4.616-3.692a.527.527 0 01.684.273.527.527 0 01-.274.684c-1.88.821-3.965 2.12-4 2.838 0 .137.103.273.376.41 2.291 1.333 3.624 2.325 3.453 3.316-.136.855-1.264 1.129-1.606 1.231-.035-.034-.069-.034-.103-.034zM99.932 164.547a.438.438 0 01-.342-.137.529.529 0 01-.034-.718c.273-.273.991-1.265.82-1.88-.068-.274-.376-.513-.855-.65-.889-.273-1.162-.786-1.23-1.196-.274-1.47 2.017-3.316 2.495-3.692.24-.171.547-.137.718.102.171.239.137.547-.102.718-.923.718-2.222 2.051-2.12 2.701.034.171.205.273.513.376.855.273 1.367.718 1.538 1.367.342 1.3-.923 2.667-1.06 2.838-.068.137-.205.171-.341.171z" fill="#FFBE55"/><path d="M171.385 155.726c.307-4.17.513-8.068.649-11.692a55.878 55.878 0 00-3.179-1.607c-2.975-1.436-7.146-3.35-9.812-4.581a35.716 35.716 0 00-3.111-1.231s-10.667-1.025-11.556-.957c-.273 0-1.607.479-3.35 1.162-3.795 1.436-11.077 4.377-12.24 5.197-1.709 1.231-7.795 31.111-7.965 33.162-.171 1.983 8.307 4.684 16.136 6.735 0 3.043-.068 7.283-.136 11.146 0 .649-.035 1.299-.035 1.948h34.257c-.034-.649-.103-1.333-.137-1.948v-.24c-.137-2.632-.65-7.316-.513-11.897 0 0-.068-4.82.41-6.906.035-9.197.582-18.291.582-18.291zm-43.453 17.607c.068-3.897 5.23-11.145 5.23-11.145l.24-.103.273-.034.821-.752c.205.684 1.914 10.462 2.325 16.171-4.855-.957-8.889-2.291-8.889-4.137z" fill="#D3D3D3"/><path d="M172.034 193.06a124.683 124.683 0 01-.615-4.821v-.034a23.99 23.99 0 01-.171-1.573v-.068a316.966 316.966 0 01-.616-6.188c-.102-1.47 0-2.906.206-4.308.581-9.812.888-20.171.888-20.171.308-4.239.479-8.205.616-11.897 0 0-13.402-6.325-14.633-6.701 0 0 2.53 5.983 4.445 19.316.718 5.129 2.085 13.744 3.077 22.564.547 4.753 1.538 9.607 2.29 13.881.103.649.24 1.299.342 1.948h4.445a38.319 38.319 0 01-.274-1.948zM149.709 177.299c.513-4.957.992-9.914.787-12.615-1.846-21.812-7.077-27.59-7.829-28.445-.582.24-2.804 1.06-3.488 1.334-3.589 1.401-10.871 4-11.863 4.718-1.709 1.23-8.41 32.581-8.615 34.598-.137 1.367 8.649 4.239 17.573 6.803-.069 2.462.136 5.915-.65 9.539-.137.649-.342 1.06-.376 1.88l12.444-.103c.069-.649.171-1.299.24-1.948.239-1.949.478-3.932.718-6.086 3.726.958 6.29 1.607 6.29 1.607s3.522-5.949 4.547-8.342c.137-.41-4.376-1.504-9.778-2.94zm-16.136-7.521c-.103-4.479-.103-7.59-.103-7.59.445 1.538 1.06 5.915 1.607 10.256-1.846-.888-1.504-1.743-1.504-2.666z" fill="#FFBE55"/><path d="M143.829 136s1.368-2.564.991-9.846c-.102-2.017 10.599 4.786 10.599 4.786s-.034.684-.069 1.641c0 .376-.034.821-.034 1.265v.957c0 .24 0 .479.034.718 0 .274.035.513.069.752.034.445.307 1.231.41 1.436.479 1.094-8 1.163-12-1.709z" fill="#FFE3CA"/><path d="M154.906 138.188l-2.085 2.462s-3.385-.65-4.377-2.428c-1.025-1.778 6.462-.034 6.462-.034z" fill="#FFE3CA"/><path d="M175.214 163.761c-3.043-4.376-5.915-5.436-5.915-5.436s-8.957-10.496-1.778-15.18c0 0 3.077-.068 4.787.855 1.743.957 5.436 8.684 6.085 10.051.616 1.368.718 3.487 1.163 3.795-.035-.034.752 5.436-4.342 5.915z" fill="#FFBE55"/><path d="M163.658 191.214s-.923-.035-1.299-.24c0 0-.684-.444-1.197-.718a2.258 2.258 0 00-.41-.205c-.41-.171-1.333-.376-2.188-1.025-.855-.65-3.658-3.248-3.658-3.248l1.812-2.769.82-2.736s6.496.65 7.385 1.163c.068.034.171.102.239.171.684.513.992 1.162 1.334 1.47.136.102 1.265 1.333 1.196 1.812-.102.684-.41 1.128-.854 1.333 0 0-.24 1.333-.923 1.915 0 0-.171 1.23-1.231 1.743 0-.034-.308 1.197-1.026 1.334zM149.538 107.487s10.804-5.47 11.795 9.607c.992 15.043-1.47 16.889-9.128 15.624-7.658-1.231-9.367-10.633-10.837-15.077-1.471-4.41 4.547-9.06 8.17-10.154z" fill="#FFE3CA"/><path d="M147.111 117.675c-.171-1.299-2.769-1.743-2.94.205-.171 1.983 1.265 5.402 2.222 5.026.957-.342.957-3.419.718-5.231z" fill="#FFE3CA"/><path d="M143.795 124.923s-.855-4.615.786-5.162c1.607-.547 2.325 1.196 2.325 1.196l1.744-.102s-1.539-3.829-.035-4.958c1.47-1.094 11.282-.512 12.308-2.017 1.026-1.504 5.47-7.384-4.581-7.726-3.863-.137-9.915-1.368-12.615 2.94 0 0-3.659 1.538-3.624 2.803 0 3.248 2.085 11.009 3.692 13.026z" fill="#0B4870"/><path d="M159.795 180.239l-4.855 8.342s-12.855-3.316-15.863-4.171l6.872-8.171c-.034.034 10.085 2.325 13.846 4z" fill="#FFBE55"/><path d="M155.385 134.701c-6.325-.65-8.753-5.504-8.753-5.504 3.966 3.931 8.718 3.829 8.718 3.829v.957c0 .239 0 .478.035.718z" fill="#FCD2B1"/><path d="M156.718 135.043s.342.615.615.82c0 0 .547.342.889.581.103.069.205.171.274.206.239.239.718.786 1.436 1.196.752.376 3.487 1.47 3.487 1.47l1.333-2.188 1.641-1.504s-2.598-4.342-3.248-4.786a13.069 13.069 0 00-.205-.103c-.581-.308-1.162-.308-1.47-.444-.137-.035-1.333-.445-1.675-.24-.445.274-.65.684-.65 1.026 0 0-.854.615-1.06 1.265 0 0-.82.513-.786 1.436.034.068-.752.718-.581 1.265z" fill="#FFE3CA"/><path d="M166.632 134.496s10.599 16.068 11.214 20.684c.616 4.615-2.29 6.598-4.786 5.094-2.462-1.505-10.598-20.513-10.598-20.513l4.17-5.265z" fill="#FFBE55"/><path d="M198.154 88.581c-16.137 0-29.197 7.556-29.197 16.889 0 3.624 1.983 7.009 5.368 9.744l-.445 3.795 3.59-1.642c5.299 3.077 12.615 4.958 20.684 4.958 16.137 0 29.196-7.556 29.196-16.889 0-9.333-13.059-16.855-29.196-16.855z" fill="#0B4870"/><path d="M181.162 106.53a1.573 1.573 0 100-3.145 1.573 1.573 0 000 3.145zM187.966 106.53a1.572 1.572 0 100-3.145 1.572 1.572 0 000 3.145zM194.803 106.53a1.573 1.573 0 100-3.145 1.573 1.573 0 000 3.145zM201.641 106.53a1.573 1.573 0 100-3.145 1.573 1.573 0 000 3.145zM208.479 106.53a1.572 1.572 0 100-3.145 1.572 1.572 0 000 3.145zM215.282 106.53a1.573 1.573 0 100-3.145 1.573 1.573 0 000 3.145z" fill="#fff"/><path d="M188.957 163.18l-3.419 31.897h45.129l3.453-31.897h-45.163z" fill="#2A94F4"/><path d="M181.927 195.048h7.556v-2.872h-7.556v2.872z" fill="#2A94F4"/><path d="M207.316 178.598c-.376 1.778.479 3.453 1.846 3.727 1.368.273 2.804-.923 3.18-2.701.376-1.778-.479-3.453-1.846-3.727-1.402-.273-2.804.924-3.18 2.701z" fill="#D3D3D3"/></g><defs><clipPath id="clip0"><path fill="#fff" d="M40 68h220v136.923H40z"/></clipPath></defs></svg>