<svg width="300" height="274" viewBox="0 0 300 274" fill="none" xmlns="http://www.w3.org/2000/svg"><g clip-path="url(#clip0)"><path opacity=".18" d="M250.003 156.637c0 3.92-.433 7.828-1.291 11.653-7.63 34.2-48.3 60.3-97.315 60.3-20.222 0-39.021-4.443-54.664-12.061-10.794-5.256-20.09-12.024-27.312-19.893a51.896 51.896 0 01-8.047-9.765c-20.74-32.185-12.963-89.614 22.127-89.136 4.185.083 8.371-.13 12.527-.64 9.859-1.274 15.839-4.254 19.461-7.487.89-.79 1.7-1.665 2.42-2.612a32.545 32.545 0 0120.746-12.552c73.189-11.724 99.842 24.763 108.104 55.507a92.798 92.798 0 013.216 25.438c.022.414.028.831.028 1.248z" fill="#68E1FD"/><path opacity=".05" d="M102.68 203.321l-39.052-13.187s-14.37-17.826-13.57-47.806l58.114 23.788s25.269-7.262 40.324-7.989c15.054-.727 81.794-7.734 81.794-7.734s12.88 14.766 7.152 19.283c-5.729 4.518-46.96 5.278-46.96 5.278l-28.674-16.805-24.116 18.633-18.376 17.339-16.636 9.2z" fill="#000405"/><path d="M166.7 137.123l-.614 1.558s1.84 1.629.614 2.328c0 0 6.384-.396 0-3.886z" fill="#3F3D56"/><path d="M93.725 187.574l-.742 2.103 6.093 2.849s5.655.712 7.394-.779a7.449 7.449 0 002.223-3.487l-14.968-.686z" fill="#333"/><path d="M109.681 167.836s7.17-.125 9.267 2.478c2.098 2.604-5.44 10.313-5.44 10.313l-17.385 1.227 13.558-14.018z" fill="#68E1FD"/><path d="M109.681 167.836s7.17-.125 9.267 2.478c2.098 2.604-5.44 10.313-5.44 10.313l-17.385 1.227 13.558-14.018z" fill="url(#paint0_linear)"/><path d="M109.423 179.014s15.064 1.359 17.683 2.325c4.949 1.861 3.477 8.817 1.242 9.559-1.868.628-16.073 5.827-20.615 7.492a1.564 1.564 0 01-1.971-.862l-1.574-3.714a1.558 1.558 0 01.025-1.281 1.561 1.561 0 01.972-.835l8.936-2.659s-13.266 1.337-15.946.743c-5.934-1.301-11.786-8.894-8.67-15.524 3.116-6.63 19.918 4.756 19.918 4.756z" fill="#68E1FD"/><path d="M109.423 179.014s15.064 1.359 17.683 2.325c4.949 1.861 3.477 8.817 1.242 9.559-1.868.628-16.073 5.827-20.615 7.492a1.564 1.564 0 01-1.971-.862l-1.574-3.714a1.558 1.558 0 01.025-1.281 1.561 1.561 0 01.972-.835l8.936-2.659s-13.266 1.337-15.946.743c-5.934-1.301-11.786-8.894-8.67-15.524 3.116-6.63 19.918 4.756 19.918 4.756z" fill="url(#paint1_linear)"/><path d="M148.775 141.53l-.696 2.724 3.569 3.161s-1.021 0-1.84 1.595l-.325 3.487s2.398 5.189 9.016.653l10.734 9.488 23.806-8.384.509-3.245-44.773-9.479z" fill="#3F3D56"/><path d="M213.316 144.134l-11.843-4.652a5.196 5.196 0 00-4.809-.141 4.048 4.048 0 00-2.315 3.49c-.408 4.477 2.002 25.085 2.002 25.085a12.08 12.08 0 002.76.708 5.77 5.77 0 004.751-1.162l.23-15.502s13.349 8.246 18.112 7.559c5.329-.766 13.904-5.139 8.111-15.281-5.793-10.141-16.999-.104-16.999-.104z" fill="#68E1FD"/><path d="M213.316 144.134l-11.843-4.652a5.196 5.196 0 00-4.809-.141 4.048 4.048 0 00-2.315 3.49c-.408 4.477 2.002 25.085 2.002 25.085a12.08 12.08 0 002.76.708 5.77 5.77 0 004.751-1.162l.23-15.502s13.349 8.246 18.112 7.559c5.329-.766 13.904-5.139 8.111-15.281-5.793-10.141-16.999-.104-16.999-.104z" fill="url(#paint2_linear)"/><path d="M203.503 116.865s-3.478 11.071-4.416 13.444c-.939 2.374-17.382 4.349-17.382 4.349l.613 7.105 18.725-2.324 5.631-8.142-3.171-14.432z" fill="#68E1FD"/><path opacity=".61" d="M203.503 116.865s-3.478 11.071-4.416 13.444c-.939 2.374-17.382 4.349-17.382 4.349l.613 7.105 18.725-2.324 5.631-8.142-3.171-14.432z" fill="url(#paint3_linear)"/><path d="M212.869 113.191l3.811 2.116c7.081 3.162 9.664 10.2 13.626 28.98 0 0-3.349 7.489-15.677 2.454 0 0-8.366-12.224-9.746-16.806-1.38-4.581-4.855-12.466 1.533-15.48 6.388-3.015 6.453-1.264 6.453-1.264z" fill="#68E1FD"/><path opacity=".05" d="M221.041 129.316l4.643 17.52s-4.738 2.889-11.07-.105c-6.333-2.993-4.091-5.97-6.134-9.608l6.204-3.373 6.357-4.434z" fill="#000405"/><path d="M212.332 112.434a4.331 4.331 0 01-5.922 2.024s-3.582 6.246 1.533 5.501c2.711-.395 5.085-4.431 5.539-6.477l-1.15-1.048z" fill="#333"/><path d="M212.562 107.423c0 .07-.163 3.152-.288 5.372a6.828 6.828 0 01-2.064 4.536 7.605 7.605 0 01-2.527 1.733 1.334 1.334 0 01-1.362-.267 1.339 1.339 0 01-.386-1.34c.122-.463.245-.997.343-1.555.203-1.159.307-2.413-.021-3.3a1.135 1.135 0 00-.034-.098c-.184-.457 0-.957.432-1.46.595-.705 1.638-1.419 2.681-2.024a31.691 31.691 0 013.226-1.597z" fill="url(#paint4_linear)"/><path d="M206.962 115.666a2.803 2.803 0 01-.671.236c.202-1.159.306-2.413-.022-3.3l.399-1.558.306-1.159 2.386-.865 2.414-.874c-.601 4.288-2.892 6.621-4.812 7.52z" fill="url(#paint5_linear)"/><path d="M206.352 95.211a6.865 6.865 0 00-4.896 2.487 6.861 6.861 0 00-1.501 5.281c.215 2.783.93 5.505 2.11 8.035 2.235 3.815 7.878.674 8.77-.896.893-1.57 4.266-8.675 2.852-10.696-.926-1.374-3.673-4.355-7.335-4.21z" fill="url(#paint6_linear)"/><path d="M200.396 92.512l1.16.595a4.365 4.365 0 00-3.582 1.733 5.73 5.73 0 00-1.681 3.987l1.972-.92s-.15 2.429 3.579 2.616c3.729.187 7.682.337 7.682.337l-1.257-1.754s2.315.92 2.723 1.791a28.65 28.65 0 01.785 4.189s.92-2.398 1.309-1.874c.39.524-.404 2.699-.892 3.174-.488.475-.405 1.908-.451 2.024-.046.117 2.319-1.84 2.423-2.512.104-.671 2.453-7.476.92-8.893l.92-.067a4.362 4.362 0 00-1.84-.712s-6.1-8.062-13.77-3.714z" fill="#333"/><path d="M181.683 135.547a21 21 0 01-3.468-.92 28.309 28.309 0 00-5.52-.862s-.359 1.227.613 1.479a25.72 25.72 0 012.086.662l-4.054.408-3.754.512s.359 1.227 1.368 1.227c.292.527.685.993 1.156 1.371a18.413 18.413 0 011.981 2.094c.509.402 1.052.76 1.622 1.07.209 0 8.112-.92 8.587-1.674l-.617-5.367z" fill="url(#paint7_linear)"/><path d="M214.65 146.741s1.227 6.105 3.046 7.642c0 0-11.924 9.304-12.479 16.035-.776 9.305 28.563-5.124 28.563-5.124l-2.03-5.14-12.72 5.64s7.74-5.232 11.585-10.467c3.024-4.152 1.38-7.973-.306-10.942-.019-.098-7.32 5.937-15.659 2.356z" fill="#68E1FD"/><path d="M214.65 146.741s1.227 6.105 3.046 7.642c0 0-11.924 9.304-12.479 16.035-.776 9.305 28.563-5.124 28.563-5.124l-2.03-5.14-12.72 5.64s7.74-5.232 11.585-10.467c3.024-4.152 1.38-7.973-.306-10.942-.019-.098-7.32 5.937-15.659 2.356z" fill="url(#paint8_linear)"/><path d="M231.716 160.151l2.202-.757 1.089 2.885-2.432 1.663-.859-3.791z" fill="url(#paint9_linear)"/><path d="M199.341 169.894l-.208-1.279a6.28 6.28 0 004.75-1.162l.129 2.095a5.042 5.042 0 01-4.671.346z" fill="url(#paint10_linear)"/><path d="M199.295 169.502l-5.213 1.882s-2.898-.708-3.478.92a3.51 3.51 0 00-.104 2.65s1.368 1.227 4.775.512c3.407-.714 8.979-2.453 8.979-2.453l-.208-3.407a5.472 5.472 0 01-4.751-.104zM234.335 158.731s-1.309.537-1.159.884c.15.346.614-.418 1.785 2.677l-.751.549 1.619 3.487a3.184 3.184 0 00-1.261 2.802c.163.85 1.669.966 2.874.549 1.205-.417 1.726-3.094 1.726-3.094s-.788-6.418-2.41-7.489c-1.622-1.07-2.423-.365-2.423-.365z" fill="#333"/><path d="M195.02 152.208l-24.613 7.756-11.285-9.372c-4.554 4.649-10.022 1.163-9.271-1.561.752-2.723 5.796-1.732 5.796-1.732l-6.838-5.744 12.794-3.22c.08.451.613 2.637 3.72 2.812 3.474.199 4.262-2.628 1.377-4.011l8.111-2.104 20.209 17.176z" fill="#68E1FD"/><path opacity=".05" d="M188.445 149.163a1.517 1.517 0 00-.469.221 2.531 2.531 0 00-.349.417c-.454.564-1.193.788-1.865 1.055-.759.3-1.48.689-2.147 1.159a.517.517 0 00-.223.252c-.102.328.407.49.579.788a.627.627 0 01.049.357.628.628 0 01-.153.327c-.166.18-.362.33-.58.441a10.686 10.686 0 00-3.005 2.742 73.712 73.712 0 0111.561-4.815c.311-.077.602-.216.856-.411a.782.782 0 00.261-.855c-.068-.151.168-.19.046-.307a78.61 78.61 0 00-2.405-2.079c.013.006-1.527.5-2.156.708z" fill="#000405"/><path d="M221.149 118.622a3.781 3.781 0 00-6.486 1.304 31.029 31.029 0 00-.684 2.603c-1.227 5.652-6.781 17.943-6.781 17.943l-16.127 8.713 4.413 5.652 18.875-9.305s8.366-18.48 8.216-22.003a8.263 8.263 0 00-1.426-4.907z" fill="#68E1FD"/><path opacity=".61" d="M221.149 118.622a3.781 3.781 0 00-6.486 1.304 31.029 31.029 0 00-.684 2.603c-1.227 5.652-6.781 17.943-6.781 17.943l-16.127 8.713 4.413 5.652 18.875-9.305s8.366-18.48 8.216-22.003a8.263 8.263 0 00-1.426-4.907z" fill="url(#paint11_linear)"/><path d="M192.448 149.976a21.266 21.266 0 01-3.558.638 28.462 28.462 0 00-5.376 1.533s.184 1.258 1.159 1.083c.976-.175 2.166-.255 2.166-.255l-3.475 2.082-3.199 2.046s.835.966 1.748.534c.49.357 1.046.614 1.635.757.914.284 1.805.638 2.665 1.058.631.152 1.275.249 1.923.291.187-.082 7.035-4.268 7.081-5.139l-2.769-4.628z" fill="url(#paint12_linear)"/><path d="M138.554 147.731l5.888 2.325v3.49s-7.054.15-7.054 3.207c0 3.058 6.652 5.456 11.111 1.374l10.151 5.827-.368 2.987-30.864 11.166-17.682-21.574v-3.487l28.818-5.315z" fill="#3F3D56"/><path d="M138.554 144.287l5.888 5.756s-7.054.154-7.054 3.211c0 3.058 6.652 5.456 11.111 1.371l10.151 9.304-30.906 10.899-18.008-21.724 12.132-3.711s-3.858-2.594-.151-4.327a5.953 5.953 0 012.19-.592c2.91-.116 3.373 1.383 3.757 3.024v.129l10.89-3.34z" fill="#68E1FD"/><path opacity=".05" d="M114.64 151.604s4.906 10.666 7.24 12.436c1.3.987 10.289 3.919 17.922 4.333.714.04 2.947-2.03 4.002-1.757 1.533.402-.279 1.778.076 1.797 4.6.218 7.149-1.797 7.149-1.797l-24.227 8.746-16.232-23.276 4.07-.482z" fill="#000405"/><path d="M138.278 170.698a17.972 17.972 0 012.803-2.92 11.01 11.01 0 012.723-1.162s.429 1.303-.307 1.548c-.736.246-1.159 1.534-1.159 1.534s5.354 1.024 6.001.708c.647-.316.709.687-.555.874-1.263.187-1.226 2-2.085 2.147-.859.147-2.131.966-3.395 1.269a16.61 16.61 0 01-4.385-.202l.359-3.796z" fill="url(#paint13_linear)"/><path d="M113.71 155.22a19.077 19.077 0 00-8.724-19.673 9.04 9.04 0 00-3.892-1.499c-5.609-.325-11.589 40.204-11.589 40.204s2.702 7.851 10.881 8.605c7.556.699 9.028-3.849 9.028-3.849l4.296-23.788z" fill="#68E1FD"/><path opacity=".61" d="M113.71 155.22a19.077 19.077 0 00-8.724-19.673 9.04 9.04 0 00-3.892-1.499c-5.609-.325-11.589 40.204-11.589 40.204s2.702 7.851 10.881 8.605c7.556.699 9.028-3.849 9.028-3.849l4.296-23.788z" fill="url(#paint14_linear)"/><path d="M101.094 134.041s.822-6.115 1.159-10.092c.338-3.977 1.644-9.304 8.32-8.608 6.676.696 6.673 10.795 4.818 15.027-1.855 4.232-4.321 4.094-4.321 4.094s-3.324-.733-3.211 3.269l-6.765-3.69z" fill="url(#paint15_linear)"/><path d="M103.618 114.482a7.517 7.517 0 00-2.039 3.407 18.28 18.28 0 00-.614 3.22l.684-.742a50.084 50.084 0 01-.429 5.581 30.213 30.213 0 00-.307 5.214l1.242-.058 1.533 1.919 1.727-1.165 1.297-.684 1.159-2.852a1.605 1.605 0 01-.555-1.858c.43-1.163 1.482-1.432 1.727-.746.188.856.29 1.728.307 2.604l1.84-5.213s1.159-1.619 2.168-.5a5.394 5.394 0 002.223 1.487l-.613-1.745 1.668.43-.129-1.988 1.242.871s.555-3.22-.5-4.652c-1.055-1.432-5.216-7.124-13.631-2.53z" fill="#333"/><path d="M138.449 169.664l-13.659-1.478a8.99 8.99 0 01-7.209-7.605l-5.051-15.411a5.431 5.431 0 00-4.358-3.732 4.728 4.728 0 00-5.327 3.714 4.726 4.726 0 00.114 2.358l5.213 18.606a8.984 8.984 0 008.111 7.872l21.415 2.794.751-7.118z" fill="#68E1FD"/><path opacity=".61" d="M138.449 169.664l-13.659-1.478a8.99 8.99 0 01-7.209-7.605l-5.051-15.411a5.431 5.431 0 00-4.358-3.732 4.728 4.728 0 00-5.327 3.714 4.726 4.726 0 00.114 2.358l5.213 18.606a8.984 8.984 0 008.111 7.872l21.415 2.794.751-7.118z" fill="url(#paint16_linear)"/><path d="M104.731 192.281l-4.02.92 1.61 4.652 4.207-.972s1.113-3.597-1.797-4.6z" fill="url(#paint17_linear)"/><path d="M99.076 192.526s2.631-.558 3.067.338c.435.895-.963.837-.684 2.106.234.966.524 1.917.868 2.849l1.297-.291.267 1.533a1.165 1.165 0 001.159.92c3.036.175 2.631 2.929 1.564 3.033l-3.928.292-2.073-1.733a1.652 1.652 0 01-.568-.687c-.77-1.487-3.097-7.023-.969-8.36z" fill="#333"/><path opacity=".4" d="M162.98 97.689c-.201.29-.376.598-.522.92-.88 1.883-3.857 8.617-4.293 14.453a5.804 5.804 0 01-5.471 5.444l-5.318.306-1.738.092a5.793 5.793 0 01-6.026-4.652c-1.089-5.373-3.407-13.582-7.912-17.21 0 0-19.863-18.189-6.618-38.472a31.55 31.55 0 012.977-3.885c13.902-15.389 36.847-8.378 42.361 5.915 5.513 14.294-5.248 34.007-7.44 37.089z" fill="#68E1FD"/><path d="M158.926 121.017c-.463 1.163-.997 1.721-.534 2.49.463.77 1.797 2.84-4.971 3.76a36.72 36.72 0 01-4.229.337h-2.214l-1.297-.058a36.412 36.412 0 01-3.475-.371 3.12 3.12 0 01-2.147-1.361 1.612 1.612 0 01.246-1.675.9.9 0 00.27-.82.892.892 0 00-.549-.667 1.928 1.928 0 01-.117-2.687c.167-.17.305-.367.408-.582a1.992 1.992 0 00-.267-2.037l-.187-.23a3.367 3.367 0 01-.555-1.165 1.74 1.74 0 01.279-1.742 5.79 5.79 0 006.023 4.649l1.739-.104a.95.95 0 00.116-.221c.307-.742-.383-1.604-.033-2.76l1.306-.058a36.267 36.267 0 009.433-1.84 1.878 1.878 0 01.463 2.328 2.88 2.88 0 00-.242.812 2.95 2.95 0 00.393 1.908 2.326 2.326 0 01.141 2.094z" fill="#68E1FD"/><path d="M139.599 114.203a39.745 39.745 0 0118.538-.337s-10.046 4.115-18.538.337z" fill="#333"/><path d="M148.496 127.494c-.505.1-1.02.135-1.534.104l-1.3-.058a36.534 36.534 0 01-3.474-.371 3.104 3.104 0 01-2.147-1.362 1.605 1.605 0 01.242-1.674.903.903 0 00.27-.822.893.893 0 00-.549-.665 1.922 1.922 0 01-.113-2.687 1.959 1.959 0 00.138-2.616 3.477 3.477 0 01-.718-1.386 1.758 1.758 0 01-.098-.908c.049-.306.178-.594.374-.834a22.803 22.803 0 009.12 1.488l.151.07s-1.16.442-.859 1.454c.301 1.012.742 2.837-.255 4.023-.996 1.187.92 1.512.559 2.849v.129c-.147.399-.26.809-.338 1.227-.208 1.052-.11 1.947.531 2.039z" fill="url(#paint18_linear)"/><path opacity=".49" d="M148.729 115.69a22.74 22.74 0 01-9.13-1.487c-1.079-5.339-3.398-13.549-7.903-17.173 0 0-19.862-18.189-6.617-38.472.89-1.37 1.885-2.67 2.977-3.885l1.785-.163s11.88-6.26 16.919.592c5.039 6.85-5.959 14.594-6.535 27.106-.577 12.512 13.742 14.828 8.504 33.482z" fill="#fff"/><path d="M157.362 124.237c-.859.558-3.941 1.607-9.434 1.227a40.364 40.364 0 01-7.611-1.349.903.903 0 00.27-.821.901.901 0 00-.549-.667 26.958 26.958 0 008.28 1.454 31.33 31.33 0 009.372-1.162s.957.481-.328 1.318z" fill="url(#paint19_linear)"/><path d="M158.671 118.748c-1.03.862-4.925 2.453-10.555 1.907a30.94 30.94 0 01-7.799-1.291 1.981 1.981 0 00-.267-2.033l-.187-.233c.371.141.997.337 1.84.558 1.9.481 3.84.789 5.796.92h.902c3.405.137 6.804-.4 10-1.582a2.936 2.936 0 00.27 1.754z" fill="url(#paint20_linear)"/><path d="M120.107 146.836l.071 3.066 1.702-.524s-1.773-1.23-1.773-2.542z" fill="#3F3D56"/><path d="M157.414 84.68l-.371-.251c.559-1.692.756-3.481.579-5.254-.441-3.753-3.091-6.044-7.452-6.44-6.685-.634-9.332 2.816-10.313 4.925-2.834 5.898-.27 15.447 3.815 19.731 5.035 5.257 3.091 15.168 2.38 18.094a1.047 1.047 0 00-.046.221v.196l1.027.35.074-.289a33.636 33.636 0 001.055-7.16c.18-5.214-1.068-9.43-3.622-12.19-3.772-3.953-6.223-13.08-3.619-18.48 1.579-3.236 4.766-4.726 9.222-4.312 4.848.46 6.188 3.241 6.458 5.483a11.555 11.555 0 01-.506 4.554 5.06 5.06 0 00-3.502-.392c-2.297.631-3.748 3.011-4.56 4.888a2.622 2.622 0 00-.181 1.484c.086.502.316.968.662 1.34a2.598 2.598 0 002.717.697c2.07-.733 4.229-3.273 5.444-6.37l.119.083c3.374 2.373.966 6.032-1.803 10.273-1.972 2.972-4.419 6.67-4.683 10.313-.306 3.263-.165 5.843.055 9.127l.016.261h1.104l-.016-.307c-.214-3.278-.343-5.827-.055-8.998.236-3.336 2.49-6.768 4.478-9.813l.089-.138c2.885-4.425 5.608-8.627 1.435-11.626zm-6.575 6.133a1.435 1.435 0 01-1.534-.401 1.503 1.503 0 01-.276-1.635c.583-1.352 1.859-3.71 3.843-4.263a3.3 3.3 0 01.871-.116 4.617 4.617 0 011.944.503c-1.156 2.922-3.122 5.336-4.848 5.919v-.006zm5.56-6.16l.049.033-.049-.034z" fill="#fff"/></g><defs><linearGradient id="paint0_linear" x1="96.123" y1="174.85" x2="119.316" y2="174.85" gradientUnits="userSpaceOnUse"><stop stop-color="#68E1FD" stop-opacity="0"/><stop offset=".02" stop-color="#66DAF6" stop-opacity=".04"/><stop offset=".18" stop-color="#58A1BC" stop-opacity=".39"/><stop offset=".35" stop-color="#4D758F" stop-opacity=".66"/><stop offset=".53" stop-color="#45566F" stop-opacity=".85"/><stop offset=".73" stop-color="#40435C" stop-opacity=".96"/><stop offset=".99" stop-color="#3F3D56"/></linearGradient><linearGradient id="paint1_linear" x1="128.418" y1="160.372" x2="101.103" y2="191.588" gradientUnits="userSpaceOnUse"><stop offset=".11" stop-color="#68E1FD" stop-opacity="0"/><stop offset=".13" stop-color="#66DAF6" stop-opacity=".04"/><stop offset=".27" stop-color="#58A1BC" stop-opacity=".39"/><stop offset=".42" stop-color="#4D758F" stop-opacity=".66"/><stop offset=".58" stop-color="#45566F" stop-opacity=".85"/><stop offset=".76" stop-color="#40435C" stop-opacity=".96"/><stop offset=".99" stop-color="#3F3D56"/></linearGradient><linearGradient id="paint2_linear" x1="19232.4" y1="9926.3" x2="24519.2" y2="11472.3" gradientUnits="userSpaceOnUse"><stop stop-color="#68E1FD" stop-opacity="0"/><stop offset=".02" stop-color="#66DAF6" stop-opacity=".04"/><stop offset=".18" stop-color="#58A1BC" stop-opacity=".39"/><stop offset=".35" stop-color="#4D758F" stop-opacity=".66"/><stop offset=".53" stop-color="#45566F" stop-opacity=".85"/><stop offset=".73" stop-color="#40435C" stop-opacity=".96"/><stop offset=".99" stop-color="#3F3D56"/></linearGradient><linearGradient id="paint3_linear" x1="213.175" y1="141.113" x2="194.668" y2="130.34" gradientUnits="userSpaceOnUse"><stop offset=".36" stop-color="#00272E"/><stop offset="1" stop-color="#69B9EB" stop-opacity="0"/></linearGradient><linearGradient id="paint4_linear" x1="205.901" y1="113.286" x2="212.574" y2="113.286" gradientUnits="userSpaceOnUse"><stop stop-color="#ECC4D7"/><stop offset=".42" stop-color="#EFD4D1"/><stop offset="1" stop-color="#F2EAC9"/></linearGradient><linearGradient id="paint5_linear" x1="3556.26" y1="1687.43" x2="3223.87" y2="2079.94" gradientUnits="userSpaceOnUse"><stop stop-color="#ECC4D7"/><stop offset=".42" stop-color="#EFD4D1"/><stop offset="1" stop-color="#F2EAC9"/></linearGradient><linearGradient id="paint6_linear" x1="8324.06" y1="3429.63" x2="8975.62" y2="3429.63" gradientUnits="userSpaceOnUse"><stop stop-color="#ECC4D7"/><stop offset=".42" stop-color="#EFD4D1"/><stop offset="1" stop-color="#F2EAC9"/></linearGradient><linearGradient id="paint7_linear" x1="7072.7" y1="2785.47" x2="7778.23" y2="2785.47" gradientUnits="userSpaceOnUse"><stop stop-color="#ECC4D7"/><stop offset=".42" stop-color="#EFD4D1"/><stop offset="1" stop-color="#F2EAC9"/></linearGradient><linearGradient id="paint8_linear" x1="17162.1" y1="10280" x2="19801" y2="11515.5" gradientUnits="userSpaceOnUse"><stop stop-color="#68E1FD" stop-opacity="0"/><stop offset=".02" stop-color="#66DAF6" stop-opacity=".04"/><stop offset=".18" stop-color="#58A1BC" stop-opacity=".39"/><stop offset=".35" stop-color="#4D758F" stop-opacity=".66"/><stop offset=".53" stop-color="#45566F" stop-opacity=".85"/><stop offset=".73" stop-color="#40435C" stop-opacity=".96"/><stop offset=".99" stop-color="#3F3D56"/></linearGradient><linearGradient id="paint9_linear" x1="2181.53" y1="1874.77" x2="2216.83" y2="1874.77" gradientUnits="userSpaceOnUse"><stop stop-color="#ECC4D7"/><stop offset=".42" stop-color="#EFD4D1"/><stop offset="1" stop-color="#F2EAC9"/></linearGradient><linearGradient id="paint10_linear" x1="2991" y1="1312.63" x2="3068.62" y2="1312.63" gradientUnits="userSpaceOnUse"><stop stop-color="#ECC4D7"/><stop offset=".42" stop-color="#EFD4D1"/><stop offset="1" stop-color="#F2EAC9"/></linearGradient><linearGradient id="paint11_linear" x1="21922" y1="12907.3" x2="18199.7" y2="11291.7" gradientUnits="userSpaceOnUse"><stop offset=".36" stop-color="#00272E"/><stop offset="1" stop-color="#69B9EB" stop-opacity="0"/></linearGradient><linearGradient id="paint12_linear" x1="7861.75" y1="3617.3" x2="8600.46" y2="3617.3" gradientUnits="userSpaceOnUse"><stop stop-color="#ECC4D7"/><stop offset=".42" stop-color="#EFD4D1"/><stop offset="1" stop-color="#F2EAC9"/></linearGradient><linearGradient id="paint13_linear" x1="4188.7" y1="3477.43" x2="4573.99" y2="3477.43" gradientUnits="userSpaceOnUse"><stop stop-color="#ECC4D7"/><stop offset=".42" stop-color="#EFD4D1"/><stop offset="1" stop-color="#F2EAC9"/></linearGradient><linearGradient id="paint14_linear" x1="4709.53" y1="17688.4" x2="6754.27" y2="17811.9" gradientUnits="userSpaceOnUse"><stop offset=".36" stop-color="#00272E"/><stop offset="1" stop-color="#69B9EB" stop-opacity="0"/></linearGradient><linearGradient id="paint15_linear" x1="3979.18" y1="6008.63" x2="4748.29" y2="6008.63" gradientUnits="userSpaceOnUse"><stop stop-color="#ECC4D7"/><stop offset=".42" stop-color="#EFD4D1"/><stop offset="1" stop-color="#F2EAC9"/></linearGradient><linearGradient id="paint16_linear" x1="8132.92" y1="15551.9" x2="11802.8" y2="12962.7" gradientUnits="userSpaceOnUse"><stop offset=".36" stop-color="#00272E"/><stop offset="1" stop-color="#69B9EB" stop-opacity="0"/></linearGradient><linearGradient id="paint17_linear" x1="1615.02" y1="2900.97" x2="1733.45" y2="2900.97" gradientUnits="userSpaceOnUse"><stop stop-color="#ECC4D7"/><stop offset=".42" stop-color="#EFD4D1"/><stop offset="1" stop-color="#F2EAC9"/></linearGradient><linearGradient id="paint18_linear" x1="4132.66" y1="3396.98" x2="3548.08" y2="3381.62" gradientUnits="userSpaceOnUse"><stop stop-color="#68E1FD" stop-opacity="0"/><stop offset=".02" stop-color="#66DAF6" stop-opacity=".04"/><stop offset=".18" stop-color="#58A1BC" stop-opacity=".39"/><stop offset=".35" stop-color="#4D758F" stop-opacity=".66"/><stop offset=".53" stop-color="#45566F" stop-opacity=".85"/><stop offset=".73" stop-color="#40435C" stop-opacity=".96"/><stop offset=".99" stop-color="#3F3D56"/></linearGradient><linearGradient id="paint19_linear" x1="7456.53" y1="757.693" x2="7459.75" y2="1050.26" gradientUnits="userSpaceOnUse"><stop stop-color="#68E1FD" stop-opacity="0"/><stop offset=".02" stop-color="#66DAF6" stop-opacity=".04"/><stop offset=".18" stop-color="#58A1BC" stop-opacity=".39"/><stop offset=".35" stop-color="#4D758F" stop-opacity=".66"/><stop offset=".53" stop-color="#45566F" stop-opacity=".85"/><stop offset=".73" stop-color="#40435C" stop-opacity=".96"/><stop offset=".99" stop-color="#3F3D56"/></linearGradient><linearGradient id="paint20_linear" x1="7821.98" y1="937.752" x2="7827.14" y2="1316.02" gradientUnits="userSpaceOnUse"><stop stop-color="#68E1FD" stop-opacity="0"/><stop offset=".02" stop-color="#66DAF6" stop-opacity=".04"/><stop offset=".18" stop-color="#58A1BC" stop-opacity=".39"/><stop offset=".35" stop-color="#4D758F" stop-opacity=".66"/><stop offset=".53" stop-color="#45566F" stop-opacity=".85"/><stop offset=".73" stop-color="#40435C" stop-opacity=".96"/><stop offset=".99" stop-color="#3F3D56"/></linearGradient><clipPath id="clip0"><path fill="#fff" d="M50 46h200v182.59H50z"/></clipPath></defs></svg>