<svg width="300" height="274" viewBox="0 0 300 274" fill="none" xmlns="http://www.w3.org/2000/svg"><g clip-path="url(#clip0)"><path opacity=".31" d="M242.765 190.083c-.39.005-2.791-3.204-3.251-3.649-3.759-3.638-6.015-7.636-7.71-11.984-1.292-3.316-2.256-6.838-3.308-10.553-.71-2.507-1.855-5.308-4.336-6.099-2.413-.767-5.013.825-6.496 2.876-1.486 2.052-2.232 4.54-3.501 6.732-2.303 3.971-6.377 5.635-9.747 2.144-4.811-4.987-6.979-11.788-10.031-17.87-2.214-4.416-4.07-9.587-6.86-13.659-4.256-6.207-10.093-11.502-17.853-11.502-4.92.745-9.253 5.104-12.189 10.548-2.933 5.445-4.646 11.923-6.103 18.383-1.222 5.418-2.295 10.896-3.287 16.403-1.845-6.636-3.765-13.222-5.842-19.695-2.251-7.011-4.737-13.995-8.189-19.605-3.452-5.61-8.023-9.747-12.612-9.718-7.073 1.369-11.636 8.351-14.628 16.088-1.962 5.072-2.912 11.217-4.303 16.576-1.912 7.382-2.914 15.413-6.589 21.876-2.57 4.522-6.524 3.369-9.188-.695-1.47-2.243-2.507-4.91-4.153-6.956-1.646-2.047-4.243-3.38-6.33-2.091-2.148 1.326-2.791 4.682-3.08 7.625-.43 4.37-.804 8.499-1.51 12.458a58.265 58.265 0 01-.511 2.561h73.839c-.051.315-.103.633-.152.948l97.92-1.142z" fill="#DCE6EF"/><path opacity=".77" d="M213.22 180.047c-.192 3.806-4.334 10.459-8.14 10.268-3.806-.191-5.837-7.157-5.643-10.964.191-3.806 4.245-22.855 8.051-22.661 3.804.191 5.923 19.55 5.732 23.357z" fill="#FFBE55"/><path d="M205.385 190.111h-.005a.099.099 0 01-.093-.106l1.92-30.847c.002-.055.046-.101.106-.093a.098.098 0 01.093.106l-1.92 30.847a.103.103 0 01-.101.093z" fill="#0B4870"/><path opacity=".77" d="M204.506 179.253a26.493 26.493 0 00-1.925 5.985c-.201 1.054-.33 2.199.148 3.163.522 1.051 1.679 1.664 2.837 1.855 2.829.465 5.659-1.269 7.318-3.607 1.659-2.339 2.377-5.199 3.036-7.988.519-2.196 1.028-4.426 2.008-6.472.418-.879 2.876-4.267 1.713-5.145-1.589-1.248-6.189.108-9.135 3.328-2.428 2.646-4.516 5.625-6 8.881z" fill="#FFBE55"/><path d="M205.566 190.354c-.008 0-.016 0-.026-.003a.1.1 0 01-.072-.121c.033-.134 3.519-13.413 11.692-20.974a.102.102 0 01.142.005.098.098 0 01-.005.142c-8.132 7.519-11.599 20.744-11.633 20.876-.01.047-.052.075-.098.075z" fill="#0B4870"/><path opacity=".77" d="M224.514 176.119c-.292.524-.84.881-1.338 1.16-.613.346-1.266.649-1.9.943-.811.378-1.648.768-2.423 1.253a8.166 8.166 0 00-1.486 1.184c.664-1.509 1.442-2.827 2.357-4.005 1.204-1.551 2.439-2.336 3.677-2.336.028 0 .056 0 .085.002.382.011.679.106.884.282.421.359.403 1.052.144 1.517zM225.894 184.716c-.488.349-1.137.436-1.705.478-.703.049-1.424.044-2.119.041-.894-.005-1.819-.013-2.726.096a8.251 8.251 0 00-1.85.434c1.245-1.08 2.511-1.941 3.842-2.613 1.752-.886 3.204-1.067 4.323-.537l.077.039c.342.173.569.385.68.633.222.501-.09 1.121-.522 1.429z" fill="#FFBE55"/><path opacity=".77" d="M222.638 188.948c-.405-.057-.77-.315-1.072-.563a18.056 18.056 0 01-1.072-.974c-.442-.421-.9-.858-1.401-1.23a5.58 5.58 0 00-1.124-.651c1.127.046 2.158.212 3.137.501 1.287.38 2.093.972 2.4 1.757l.021.054c.088.246.101.458.041.633-.124.36-.571.522-.93.473z" fill="#FFBE55"/><path d="M213.377 190.432c-.051-.006-.101-.044-.101-.101 0-.083.153-8.269 10.019-15.129a.1.1 0 01.139.025.1.1 0 01-.026.14c-9.78 6.801-9.933 14.884-9.933 14.964a.097.097 0 01-.098.101z" fill="#0B4870"/><path d="M213.377 190.432a.092.092 0 01-.044-.011.1.1 0 01-.049-.134c.031-.065 3.173-6.594 11.414-6.594.057 0 .1.043.1.1a.099.099 0 01-.1.101c-8.109 0-11.202 6.413-11.23 6.478a.1.1 0 01-.091.06z" fill="#0B4870"/><path d="M222.824 188.119a.104.104 0 01-.059-.021c-3.261-2.46-4.866-2.387-4.879-2.385a.1.1 0 01-.108-.093.104.104 0 01.093-.108c.067-.008 1.677-.091 5.015 2.426a.102.102 0 01.021.142.117.117 0 01-.083.039z" fill="#0B4870"/><path d="M96.602 178.416c-1.434-1.656-3.25-3.083-3.824-5.173-.419-1.527-.088-3.142.075-4.716.163-1.573.106-3.315-.912-4.524-.84-.998-2.166-1.432-3.44-1.706s-2.604-.447-3.736-1.095c-1.837-1.055-1.47-2.845-2.457-4.416-1.106-1.763-3.683-4.013-5.89-2.843-2.335 1.24-1.966 5.005-.413 6.667 1.031 1.103 2.352 2.16 2.504 3.664.227 2.261-2.362 4.297-1.651 6.457.527 1.595 2.535 2.142 3.53 3.496.981 1.341.782 3.217.206 4.776-.578 1.558-1.488 2.997-1.847 4.617-.737 3.318 1.868 5.61 4.834 6.352 2.727.679 8.605.359 8.605.359 2.098-.734 4.424-2.576 5.579-4.592.87-1.522.992-3.45.318-5.07-.35-.832-.881-1.563-1.48-2.253z" fill="#FFBE55"/><path d="M90.163 190.346a.101.101 0 01-.101-.095c-1.078-16.995-11.013-32.52-11.114-32.675a.098.098 0 01.031-.139.099.099 0 01.14.031c.1.155 10.064 15.726 11.147 32.77a.101.101 0 01-.093.106l-.01.002z" fill="#0B4870"/><path d="M70.093 178.437c.155-.132.38-.204.67-.212h.064c.933 0 1.868.594 2.78 1.765.693.891 1.28 1.889 1.78 3.028a6.064 6.064 0 00-1.123-.894c-.584-.367-1.22-.661-1.832-.948a20.451 20.451 0 01-1.435-.713c-.377-.212-.79-.484-1.013-.879-.196-.351-.209-.876.109-1.147zM68.548 185.003c.082-.186.256-.347.514-.478.018-.011.039-.019.057-.029.845-.4 1.943-.263 3.269.406a14.202 14.202 0 012.907 1.977 6.158 6.158 0 00-1.398-.329c-.688-.082-1.385-.077-2.062-.072-.527.003-1.073.008-1.602-.031-.432-.031-.92-.098-1.29-.362-.33-.232-.566-.703-.395-1.082z" fill="#FFBE55"/><path d="M70.698 188.93c-.047-.132-.036-.292.03-.478l.016-.041c.233-.594.843-1.041 1.817-1.328.739-.22 1.52-.344 2.372-.38a4.103 4.103 0 00-.85.493c-.38.282-.726.61-1.06.931-.26.248-.53.506-.811.736-.228.186-.504.383-.812.426-.27.034-.607-.09-.702-.359z" fill="#FFBE55"/><path d="M78.403 190.432a.101.101 0 01-.1-.101c0-.062-.122-6.166-7.5-11.295a.1.1 0 01-.025-.139.1.1 0 01.14-.026c7.47 5.194 7.586 11.398 7.586 11.46a.1.1 0 01-.1.101c.002 0 .002 0 0 0z" fill="#0B4870"/><path d="M78.406 190.432a.097.097 0 01-.09-.057c-.024-.049-2.357-4.884-8.471-4.884a.1.1 0 01-.1-.101.1.1 0 01.1-.101c6.246 0 8.628 4.951 8.651 5a.1.1 0 01-.049.135c-.013.002-.028.008-.041.008z" fill="#0B4870"/><path d="M71.261 188.682a.097.097 0 01-.08-.041.1.1 0 01.02-.142c2.53-1.91 3.758-1.843 3.81-1.84a.101.101 0 01.092.108c-.005.055-.051.101-.108.093-.013 0-1.217-.051-3.672 1.799a.09.09 0 01-.062.023z" fill="#0B4870"/><path d="M178.103 186.168h-70.847a2.832 2.832 0 01-2.83-2.829v-95.35c0-1.56 1.269-2.829 2.83-2.829h21.175v.775h-21.175a2.057 2.057 0 00-2.054 2.055v95.349c0 1.131.922 2.054 2.054 2.054h70.847a2.059 2.059 0 002.055-2.054v-95.35a2.058 2.058 0 00-2.055-2.054h-21.17v-.775h21.17a2.832 2.832 0 012.83 2.83v95.349a2.834 2.834 0 01-2.83 2.829z" fill="#FFBE55"/><path d="M175.147 181.155h-64.935a.999.999 0 01-.998-.997V91.171c0-.55.448-.998.998-.998h64.935c.551 0 .998.447.998.998v88.987c0 .55-.447.997-.998.997z" fill="#F2F2F2"/><path d="M157.269 92.814H128.09v-9.548h8.447a6.153 6.153 0 016.143-6.039c3.351 0 6.085 2.7 6.142 6.04h8.447v9.547zm-28.403-.775h27.628V84.04h-8.481l.026-.511c.002-.052.008-.106.008-.16a5.374 5.374 0 00-5.367-5.367 5.374 5.374 0 00-5.367 5.367c0 .054.005.108.007.16l.026.511h-8.48v7.998z" fill="#FFBE55"/><path d="M142.68 86.99a3.625 3.625 0 01-3.621-3.62 3.623 3.623 0 013.621-3.62 3.623 3.623 0 013.62 3.62 3.625 3.625 0 01-3.62 3.62zm0-6.463a2.848 2.848 0 00-2.845 2.845 2.848 2.848 0 002.845 2.845 2.849 2.849 0 002.845-2.845 2.849 2.849 0 00-2.845-2.845z" fill="#FFBE55"/><path d="M244.574 201.129H55.426A5.426 5.426 0 0150 195.703a5.426 5.426 0 015.426-5.427h189.148a5.426 5.426 0 015.426 5.427 5.426 5.426 0 01-5.426 5.426z" fill="#D3D3D3"/><path d="M128.832 115.432h-11.181v-11.181h11.181v11.181zm-10.922-.259h10.664v-10.664H117.91v10.664z" fill="#0B4870"/><path d="M123.61 112.966l-3.695-2.901.638-.812 2.987 2.344 6.468-6.23.716.744-7.114 6.855zM169.535 107.481h-35.589a.421.421 0 010-.843h35.589a.422.422 0 010 .843zM169.535 109.336h-35.589a.421.421 0 010-.842h35.589a.421.421 0 010 .842zM169.535 111.189h-35.589a.421.421 0 010-.843h35.589a.422.422 0 010 .843zM169.535 113.044h-35.589a.421.421 0 010-.842h35.589a.421.421 0 010 .842zM128.832 133.016h-11.181v-11.181h11.181v11.181zm-10.922-.259h10.664v-10.664H117.91v10.664z" fill="#0B4870"/><path d="M123.61 130.55l-3.695-2.901.638-.812 2.987 2.344 6.468-6.23.716.744-7.114 6.855zM169.535 125.065h-35.589a.421.421 0 010-.843h35.589a.422.422 0 010 .843zM169.535 126.92h-35.589a.421.421 0 010-.842h35.589a.421.421 0 010 .842zM169.535 128.773h-35.589a.421.421 0 010-.843h35.589a.422.422 0 010 .843zM169.535 130.628h-35.589a.421.421 0 010-.842h35.589a.421.421 0 010 .842zM128.832 150.6h-11.181v-11.181h11.181V150.6zm-10.922-.259h10.664v-10.664H117.91v10.664z" fill="#0B4870"/><path d="M123.61 148.134l-3.695-2.901.638-.812 2.987 2.344 6.468-6.23.716.744-7.114 6.855zM169.535 142.649h-35.589a.421.421 0 010-.843h35.589a.422.422 0 010 .843zM169.535 144.504h-35.589a.421.421 0 010-.842h35.589a.421.421 0 010 .842zM169.535 146.357h-35.589a.421.421 0 010-.843h35.589a.422.422 0 010 .843zM169.535 148.212h-35.589a.421.421 0 010-.842h35.589a.421.421 0 010 .842zM128.832 168.183h-11.181v-11.18h11.181v11.18zm-10.922-.258h10.664v-10.664H117.91v10.664z" fill="#0B4870"/><path d="M123.61 165.718l-3.695-2.901.638-.812 2.987 2.344 6.468-6.23.716.744-7.114 6.855zM169.535 160.233h-35.589a.421.421 0 010-.843h35.589a.422.422 0 010 .843zM169.535 162.088h-35.589a.421.421 0 010-.842h35.589a.421.421 0 010 .842zM169.535 163.941h-35.589a.421.421 0 010-.843h35.589a.422.422 0 010 .843zM169.535 165.796h-35.589a.421.421 0 010-.842h35.589a.421.421 0 010 .842z" fill="#0B4870"/><path d="M171.336 147.76c.579-.411 1.111-.887 1.357-1.026.103-.057.423-.129.514-.158.268-.08.697-.163.883-.372l.796-.873c.378-.429.871-.571 1.297-.194.463.408.326.99-.134 1.403l-.545.62c-.367.331-.551.796-.755 1.246-.413.917-1.351 1.607-2.152 2.09-.504.302-1.266.088-2.266-.253-.491-.168-1.202-.574-.589-.804.514-.191 2.059.225 2.741-1.199.034-.069.106-.256.036-.32-.206-.194-.664.245-.969.385-.429.196-.772.129-.878-.029-.114-.165.25-.222.664-.516z" fill="#FAB9AF"/><path d="M193.083 116.522s-1.277 15.323-5.858 20.493c-2.76 3.117-9.512 8.46-11.075 9.685a.578.578 0 01-.685.018 4.914 4.914 0 01-.411-.32 4.58 4.58 0 01-.421-.445.69.69 0 01.021-.917c1.752-1.904 8.625-9.452 9.462-11.437.959-2.276 2.61-15.715 4.127-17.661 1.517-1.951 4.424-2.372 4.84.584z" fill="#FFBE55"/><path d="M187.297 141.835l3.907-27.442 10.535-1.447 5.481 28.692-19.923.197zM195.442 184.359l-.01 3.093a6.717 6.717 0 00.253 1.861l.268.953a1.223 1.223 0 01-1.18 1.556c-2.106-.008-5.708-.003-6.636 0-.152 0-.3-.104-.313-.254-.077-.901 2.53-1.509 4.496-2.268 1.497-.579 1.416-3.269 1.233-4.84a.946.946 0 011.021-1.049c.491.041.87.455.868.948zM209.922 183.491l1.065 3.537c.047.158.116.305.209.44l.755 1.121a1.277 1.277 0 01-.687 1.936s-1.525.534-3.093 1.051c-1.608.527-3.631.088-3.631-.338 0-.943.879-.194 2.351-1.179a23.86 23.86 0 001.458-1.031c1.266-.994.16-3.511-.615-4.93a.868.868 0 01.586-1.263l.367-.078a1.067 1.067 0 011.235.734z" fill="#FAB9AF"/><path d="M199.036 142.101l-11.677-.98s-1.176 8.499 1.775 23.882c1.385 7.214 4.269 21 4.269 21 .716.312 1.442.39 2.181.206 0 0 .22-6.08.354-12.63.129-6.279.163-12.99.563-15.186.817-4.486 2.535-16.292 2.535-16.292z" fill="#0B4870"/><path d="M196.625 142.248c-1.206 6.47-3.899 16.145 1.29 25.233a5548.135 5548.135 0 0010.635 18.537c.703.028 1.339-.225 1.931-.674 0 0-.91-4.119-2.225-8.931-1.504-5.503-3.408-11.976-2.866-15.351 1.018-6.326 2.186-14.749 1.832-18.842-.356-4.093-9.964-3.372-10.597.028z" fill="#0B4870"/><path d="M186.894 141.137l4.31-26.744 10.538-1.447 5.661 28.24a.971.971 0 01-.77 1.147c-1.961.372-6.692 1.148-11.99 1.148-3.953 0-6.175-.768-7.186-1.256a1.024 1.024 0 01-.563-1.088z" fill="#F2F2F2"/><path d="M207.749 151.488c.161-.69.248-1.4.339-1.666.039-.111.232-.378.282-.46.149-.238.416-.584.416-.863l.02-1.181c0-.571.277-1.003.845-1.003.618 0 .899.527.827 1.142v.827c-.057.491.114.961.258 1.434.295.962.05 2.099-.232 2.993-.176.56-.892.904-1.866 1.307-.478.199-1.281.364-.974-.212.258-.483 1.693-1.191 1.264-2.713-.021-.075-.088-.264-.184-.266-.284-.008-.336.623-.473.93-.191.432-.493.607-.679.561-.194-.052.041-.336.157-.83z" fill="#FAB9AF"/><path d="M198.45 114.612c0 1.928.351 3.835 1.007 5.646 1.287 3.543 3.22 10.241 2.07 16.143-1.651 8.498-3.778 11.932-1.023 13.914 2.754 1.98 8.036-1.323 8.188-2.426.153-1.101-1.028-14.633-2.364-20.496-1.338-5.863-5.085-14.292-5.085-14.292l-1.587.17a1.347 1.347 0 00-1.206 1.341z" fill="#FFBE55"/><path d="M203.401 113.674s9.178 12.339 9.16 19.246c-.011 4.163-1.54 12.636-1.902 14.589a.571.571 0 01-.501.465 4.875 4.875 0 01-.52.031c-.173 0-.4-.026-.61-.054a.691.691 0 01-.591-.703c.054-2.587.219-12.793-.468-14.837-.788-2.344-8.437-13.512-8.587-15.977-.152-2.462 1.752-4.703 4.019-2.76zM194.062 114s-1.827 3.948-1.191 9.623c.638 5.674 2.113 22.953-3.049 25.563-1.636.827-5.37-2.832-5.37-4.191s1.246-5.902 2.427-10.034c1.18-4.132 4.025-20.53 4.025-20.53l3.158-.431z" fill="#FFBE55"/><path d="M195.532 101.76c2.352 0 3.23 1.674 3.274 4.77.018 1.16-.504 2.307-.925 3.041a2.293 2.293 0 00-.22 1.793l.517 1.747c.352 1.62-.418 2.512-1.555 2.835-.564.16-1.238.036-1.729-.282-.584-.377-.633-1.191-.524-1.879l.134-.498c.181-.672-.209-1.396-.889-1.543-1.811-.395-2.07-2.284-2.556-5.214-.506-3.055 2.122-4.77 4.473-4.77z" fill="#FAB9AF"/><path d="M190.057 100.4l1.349.411c.496.15 1.023.155 1.522.011l2.692-.781c1.631 0 4.326.92 3.985 3.274l-.3 1.664a1.494 1.494 0 01-1.349 1.22.528.528 0 01-1.036-.137 1.6 1.6 0 00-1.258-1.556c-.9-.201-1.858-.25-2.864.021-1.87.504-3.844-.656-4.031-2.586a3.804 3.804 0 01-.018-.373c-.002-.78.641-1.351 1.308-1.168z" fill="#0B4870"/><path d="M197.512 106.587c0 .718.266 1.299.958 1.299.693 0 1.135-.987 1.135-1.705 0-.719-.445-.894-1.135-.894-.692 0-.958.584-.958 1.3z" fill="#FAB9AF"/><path d="M197.796 109.739s-1.757 2.413-3.941 2.088c0 0 .455.217.564.568 0 0 2.075-.152 3.377-2.656z" fill="#E8948B"/><path d="M202.455 76.085c0 1.677-1.106 3.04-2.473 3.04h-29.32c-1.365 0-2.473-1.36-2.473-3.04 0-1.677 1.106-3.038 2.473-3.038h29.32c1.367.002 2.473 1.361 2.473 3.038zM97.501 92.354a3.039 3.039 0 01-3.038 3.039H58.437a3.039 3.039 0 110-6.078h36.028a3.036 3.036 0 013.036 3.039zM112.23 76.075c0 1.677-1.127 3.039-2.514 3.039H79.904c-1.387 0-2.514-1.36-2.514-3.04 0-1.676 1.127-3.038 2.514-3.038h29.812c1.387 0 2.514 1.36 2.514 3.039zM234.553 89.243a3.039 3.039 0 01-3.039 3.039h-36.026a3.038 3.038 0 010-6.078h36.029a3.04 3.04 0 013.036 3.039z" fill="#F2F2F2"/><path d="M195.755 189.556s-1.634.72-3.156-.401c0 0-3.757.602-4.834 1.713-1.078 1.111-.297 1.662 1.057 1.638 1.351-.023 6.576-.077 6.576-.077s1.341-.819.357-2.873zM211.455 187.731s-.796 1.047-2.579.427c0 0-3.964 1.811-4.664 3.191-.7 1.38.207 1.674 1.493 1.253 1.287-.421 6.259-2.018 6.259-2.018s1.039-1.183-.509-2.853z" fill="#0B4870"/></g><defs><clipPath id="clip0"><path fill="#fff" d="M50 73h200v128.165H50z"/></clipPath></defs></svg>