<svg width="40" height="40" viewBox="0 0 40 40" fill="none" xmlns="http://www.w3.org/2000/svg"><path d="M20.283 5.126s-2.799-.657-5.186 1.152c-2.387 1.81-1.119 4.388-3.423 6.444-2.305 2.058-1.976 3.91-.7 6.172 1.277 2.263-1.607 3.321-.795 6.082.787 2.677 3.592 4.045 3.592 4.045h12.55s4.044-2.993 4.252-5.173c.204-2.18-2.07-3.265-1.412-4.788.657-1.522.704-3.658-.81-5.327-1.865-2.059-.42-2.487-1.826-5.33-1.62-3.282-3.979-3.995-6.242-3.277z" fill="#471B18"/><path d="M29.578 28.31c-1.29-2.44-9.58-3.973-9.58-3.973s-8.288 1.531-9.579 3.974C9.466 31.698 8.67 36 8.67 36h22.657c.003 0-.536-4.614-1.75-7.69z" fill="#F1C9A5"/><path d="M20.001 24.337s8.29 1.531 9.58 3.974C30.79 31.386 31.33 36 31.33 36H20V24.337z" fill="#E4B692"/><path d="M22.256 19.378h-4.512v7.554h4.512v-7.554z" fill="#F1C9A5"/><path d="M22.259 19.378H20v7.554h2.258v-7.554z" fill="#E4B692"/><path opacity=".1" d="M17.744 22.876c.406 1.166 2.045 1.832 3.247 1.832.433 0 .859-.072 1.265-.208v-5.122h-4.512v3.498z" fill="#DDAC8C"/><path d="M25.804 14.612c0-4.717-2.598-7.4-5.803-7.4s-5.802 2.683-5.802 7.4c0 4.716 2.597 8.543 5.802 8.543 3.203-.003 5.803-3.827 5.803-8.543z" fill="#F1C9A5"/><path d="M24.92 17.883c-1.053-.116-1.763-1.32-1.584-2.688.177-1.368 1.172-2.385 2.225-2.269 1.05.116 1.76 1.32 1.583 2.689-.177 1.367-1.172 2.381-2.224 2.268z" fill="#E4B692"/><path d="M12.898 15.615c-.177-1.368.53-2.573 1.583-2.689 1.053-.116 2.05.9 2.224 2.269.177 1.367-.533 2.572-1.583 2.688-1.053.113-2.047-.9-2.224-2.268z" fill="#F1C9A5"/><path d="M25.804 14.612c0-4.717-2.598-7.4-5.803-7.4v15.943c3.203-.003 5.803-3.827 5.803-8.543z" fill="#E4B692"/><path d="M12.956 36h14.058v-7.615H12.956V36z" fill="#fff"/><path d="M18.64 36l-1.31-11.055c-2.935.462-6.256 2.133-6.905 3.363-.953 3.387-1.75 7.69-1.75 7.69h9.964V36zM21.922 36h9.408s-.54-4.614-1.75-7.69c-1.057-1.884-5.238-2.903-6.694-3.334L21.922 36z" fill="#FE393E"/><path d="M19.985 9.727s-1.252 2.696-3.012 3.544c-2.777 1.338-.367 3.38-.69 6.104-.29 2.456-3.145 3.578-1.482 6.22-2.893.569-2.754-.887-2.754-.887s-.277-7.588-.346-7.762c-.069-.174 1.658-4.87 1.658-4.87l2.484-5.32 4.443-.898-.301 3.869z" fill="#471B18"/><path d="M19.985 9.727s.14 2.119 2.271 2.301c2.13.185 2.407 1.746 1.992 3.153-.414 1.406-.6 2.188.553 3.293 1.152 1.105-.138 5.374-.138 5.374l4.235-2.017s-.903-3.426-.414-5.338c.489-1.912-1.705-3.268-2.258-4.65-.552-1.381-3.323-6.363-5.567-5.985-2.246.379-2.02 2.763-2.02 2.763l1.346 1.106z" fill="#471B18"/></svg>