<svg width="40" height="40" viewBox="0 0 40 40" fill="none" xmlns="http://www.w3.org/2000/svg"><path d="M30.337 27.241c-1.44-2.723-10.692-4.435-10.692-4.435s-9.252 1.709-10.693 4.435C7.888 31.022 7 35.824 7 35.824h25.29s-.599-5.15-1.953-8.583z" fill="#F1C9A5"/><path d="M19.645 22.806s9.252 1.709 10.692 4.435c1.354 3.433 1.953 8.583 1.953 8.583H19.645V22.806z" fill="#E4B692"/><path d="M22.165 17.27h-5.037v8.432h5.037V17.27z" fill="#F1C9A5"/><path d="M22.165 17.27h-2.52v8.432h2.52V17.27z" fill="#E4B692"/><path opacity=".1" d="M17.128 21.175c.454 1.301 2.282 2.044 3.624 2.044.487 0 .96-.08 1.413-.23V17.27h-5.037v3.905z" fill="#DDAC8C"/><path d="M30.337 27.241c-.838-1.591-4.342-2.834-7.111-3.596a3.584 3.584 0 01-7.156 0c-2.77.759-6.273 2.005-7.115 3.596-1.064 3.781-1.952 8.583-1.952 8.583h25.29c-.003 0-.602-5.15-1.956-8.583z" fill="#7E7C7C"/><path d="M26.122 11.95c0-5.264-2.9-8.26-6.477-8.26-3.578 0-6.477 2.996-6.477 8.26 0 2.205.676 7.09 1.826 8.087.793.703 3.374 1.906 4.635 1.906h.025c1.265 0 3.846-1.203 4.636-1.906 1.202-1.268 1.832-6.064 1.832-8.087z" fill="#F1C9A5"/><path d="M19.645 21.943h.012c1.265 0 3.846-1.203 4.636-1.906 1.196-1.265 1.825-6.06 1.825-8.087 0-5.264-2.899-8.26-6.476-8.26l.003 18.253z" fill="#E4B692"/><path d="M25.138 15.602c-1.175-.124-1.968-1.388-1.768-2.825.198-1.438 1.308-2.505 2.483-2.381 1.172.123 1.965 1.387 1.767 2.825-.197 1.434-1.31 2.5-2.482 2.38z" fill="#E4B692"/><path d="M11.719 13.218c-.198-1.438.592-2.702 1.767-2.825 1.175-.124 2.288.943 2.483 2.38.197 1.438-.596 2.702-1.768 2.826-1.175.123-2.285-.944-2.482-2.381z" fill="#F1C9A5"/><path d="M13.28 7.318c-.633 1.332-.553 3.343-.553 3.343s.771.213 1.037 1.178c0-2.325.317-4.953 2.239-5.138 1.733-.164 1.603.592 3.645.592V3s-4.318.003-6.369 4.318zM26.014 7.318c-1.817-4.315-6.366-4.315-6.366-4.315v4.293c2.042 0 1.909-.759 3.645-.592 1.925.182 2.24 2.81 2.24 5.138.265-.965 1.033-1.206 1.033-1.206s.018-1.958-.552-3.318zM19.645 17.27v.793l-2.236.376v-.3l2.236-.869zM19.645 17.27v.793l2.236.376v-.3l-2.236-.869z" fill="#262421"/></svg>