<svg width="24" height="24" viewBox="0 0 24 24" fill="none" xmlns="http://www.w3.org/2000/svg"><path fill="currentColor" d="M19.2 9.8l.44.237a.5.5 0 00.025-.42l-.465.184zm-2.232-5.684l.466-.183a.5.5 0 00-.575-.305l.11.488zm-5.89 1.317l-.109-.488a.5.5 0 00-.331.251l.44.237zm-6.55 12.181l-.44-.236a.5.5 0 00.203.677l.237-.44zm8.12 4.368l-.236.44a.5.5 0 00.677-.203l-.44-.237zm3.79-14.75l.478-.15-.478.15zm-.903 1.72l-.148-.478.148.478zm-1.72-.904l.477-.148-.477.148zm.903-1.72l-.149-.478.149.478zm.85.918a.5.5 0 00-.404.915l.404-.915zm3.626-.698l-.421-.27.42.27zm-.553-3.96l-.332.374.332-.374zm-4.318-.448a.5.5 0 00.639.77l-.639-.77zm5.342 7.478l-2.231-5.685-.931.365 2.231 5.685.931-.365zm-2.806-5.99l-5.89 1.317.218.976 5.89-1.318-.218-.975zm-6.221 1.568l-6.55 12.182.88.473 6.55-12.181-.88-.474zM4.29 18.055l8.121 4.367.474-.88-8.122-4.368-.473.88zm8.798 4.164l6.551-12.182-.88-.473-6.552 12.181.881.474zM15.961 7.38a.874.874 0 01-.574 1.094l.297.955a1.874 1.874 0 001.232-2.346l-.955.297zm-.574 1.094a.874.874 0 01-1.095-.574l-.954.297a1.874 1.874 0 002.346 1.232l-.297-.955zM14.292 7.9a.874.874 0 01.575-1.095l-.298-.955a1.874 1.874 0 00-1.232 2.347l.955-.297zm.575-1.095a.874.874 0 011.094.575l.955-.297a1.874 1.874 0 00-2.347-1.233l.298.955zm.297 1.356c.78.344 1.658.397 2.474.15l-.289-.957a2.574 2.574 0 01-1.781-.108l-.404.915zm2.474.15a3.573 3.573 0 001.977-1.494l-.842-.539a2.573 2.573 0 01-1.424 1.076l.289.958zm1.977-1.494c.46-.718.647-1.576.53-2.42l-.991.138a2.574 2.574 0 01-.381 1.743l.842.54zm.53-2.42a3.573 3.573 0 00-1.173-2.184l-.663.75c.46.406.76.964.845 1.572l.99-.139zm-1.173-2.184a3.574 3.574 0 00-2.311-.895l-.016 1c.614.009 1.204.238 1.664.644l.663-.749zm-2.311-.895a3.573 3.573 0 00-2.338.822l.639.77a2.573 2.573 0 011.683-.593l.016-1z"/></svg>