<svg viewBox="0 0 12 12" fill="none" xmlns="http://www.w3.org/2000/svg"><g clip-path="url(#clip0)"><path d="M10.085 10.085A5.25 5.25 0 112.66 2.661a5.25 5.25 0 017.424 7.424z" fill="#C2E4F8"/><path d="M10.35 2.396a5.63 5.63 0 00-7.954 0 5.63 5.63 0 000 7.955 5.63 5.63 0 007.955 0 5.63 5.63 0 000-7.955zm-.53.53a4.87 4.87 0 010 6.894 4.87 4.87 0 01-6.894 0 4.87 4.87 0 010-6.894 4.87 4.87 0 016.894 0z" fill="#249FE6"/><path fill-rule="evenodd" clip-rule="evenodd" d="M8.63 4.872a.375.375 0 00-.232.077l-2.74 2.055-1.27-1.27a.375.375 0 10-.531.53l1.5 1.5a.375.375 0 00.49.036l3-2.25a.375.375 0 00-.216-.678z" fill="#249FE6"/></g><defs><clipPath id="clip0"><path fill="#fff" d="M0 0h12v12H0z"/></clipPath></defs></svg>