<svg width="24" height="24" viewBox="0 0 24 24" fill="none" xmlns="http://www.w3.org/2000/svg"><path d="M11.994 3a8.989 8.989 0 00-7.938 4.77 9.005 9.005 0 00.477 9.254L3 21l4.09-1.463a8.99 8.99 0 0013.538-4.977A9.007 9.007 0 0016.03 3.95 8.989 8.989 0 0011.994 3z" stroke="#fff" stroke-linecap="round" stroke-linejoin="round"/><path d="M10.039 13.957c1.016 1.017 3.26 2.347 4.301 2.347a1.977 1.977 0 001.955-1.565v-.783s-.962-.469-1.564-.782c-.602-.313-1.564.783-1.564.783a5.098 5.098 0 01-1.955-1.174 5.104 5.104 0 01-1.173-1.957s1.095-.963.782-1.565c-.313-.603-.782-1.565-.782-1.565h-.782a1.978 1.978 0 00-1.565 1.956c0 1.041 1.33 3.287 2.347 4.305z" stroke="#fff" stroke-linecap="round" stroke-linejoin="round"/></svg>