<?xml version="1.0" encoding="utf-8"?>
<!-- Generator: Adobe Illustrator 16.0.3, SVG Export Plug-In . SVG Version: 6.00 Build 0)  -->
<!DOCTYPE svg PUBLIC "-//W3C//DTD SVG 1.1//EN" "http://www.w3.org/Graphics/SVG/1.1/DTD/svg11.dtd">
<svg version="1.1" id="Layer_1" xmlns="http://www.w3.org/2000/svg" xmlns:xlink="http://www.w3.org/1999/xlink" x="0px" y="0px"
	 width="1440px" height="740px" viewBox="0 0 1440 740" enable-background="new 0 0 1440 740" xml:space="preserve">
<g id="XMLID_926_">
	<g id="XMLID_563_">
		<path id="XMLID_578_" fill="#666666" stroke="#4D4D4D" stroke-miterlimit="10" d="M1132.456,536.482L1132.456,536.482v-0.005
			c-0.078-0.231-0.15-0.469-0.247-0.701l-5.641-17.347c-0.104-0.284-0.354-0.488-0.649-0.531l-22.345-3.106
			c-0.104-0.016-0.203-0.047-0.293-0.101l-58.501-34.081c-10.813-6.242-29.7-5.459-42.183,1.749l-49.613,28.453
			c-0.157,0.09-0.339,0.124-0.519,0.1l-12.139-1.688c-0.378-0.053-0.745,0.166-0.874,0.526l-5.341,16.207
			c-0.943,1.574-1.527,3.18-1.719,4.771l0,0l0,0c-0.525,4.391,1.839,8.659,7.226,11.77l80.914,47.023
			c10.813,6.243,29.698,5.459,42.188-1.75l59.945-34.422C1130.993,548.544,1134.34,542.097,1132.456,536.482z"/>
		<path id="XMLID_576_" fill="#FFFFFF" stroke="#4D4D4D" stroke-miterlimit="10" d="M1019.891,566.399l-74.108-43.097
			c-10.341-5.969-9.044-16.396,2.896-23.292l56.401-32.377c11.943-6.892,30.003-7.642,40.345-1.671l74.108,43.093
			c10.341,5.972,9.046,16.401-2.897,23.293l-56.399,32.377C1048.295,571.618,1030.229,572.368,1019.891,566.399z"/>
	</g>
	<g id="XMLID_600_">
		<g id="XMLID_592_">
			<path id="XMLID_612_" fill="#FF9933" stroke="#4D4D4D" stroke-miterlimit="10" d="M1083.73,512.638L1083.73,512.638
				L1083.73,512.638c-0.036-0.102-0.066-0.204-0.108-0.307l-2.456-13.441c-0.042-0.125-0.151-0.215-0.28-0.231l-9.72-1.352
				c-0.047-0.009-0.089-0.021-0.128-0.045l-25.451-14.827c-4.702-2.713-12.919-2.375-18.353,0.764l-21.58,12.379
				c-0.07,0.039-0.147,0.053-0.225,0.042l-5.284-0.733c-0.162-0.022-0.323,0.072-0.378,0.229l-2.325,12.946
				c-0.409,0.686-0.663,1.384-0.747,2.074l0,0l0,0c-0.227,1.909,0.803,3.769,3.143,5.121l35.201,20.456
				c4.706,2.717,12.919,2.375,18.352-0.762l26.078-14.975C1083.093,517.886,1084.551,515.08,1083.73,512.638z"/>
			<path id="XMLID_610_" fill="#FFD72E" stroke="#4D4D4D" stroke-miterlimit="10" d="M1034.761,519.756l-32.239-18.745
				c-4.5-2.598-3.935-7.136,1.259-10.135l24.536-14.084c5.195-2.999,13.053-3.324,17.554-0.729l32.239,18.747
				c4.496,2.598,3.935,7.136-1.263,10.136l-24.535,14.083C1047.115,522.028,1039.258,522.354,1034.761,519.756z"/>
		</g>
		<path id="XMLID_601_" fill="#FF8B00" stroke="#4D4D4D" stroke-miterlimit="10" d="M1063.988,492.737h0.016
			c0,0-0.021-0.06-0.053-0.146c-0.065-0.217-0.146-0.431-0.229-0.646c-1.771-5.128-11.384-34.822-11.384-75.857l-10.911,1.228
			l-10.909-1.228c0,41.046-9.617,70.744-11.386,75.86c-0.085,0.212-0.164,0.426-0.228,0.641c-0.034,0.09-0.056,0.148-0.056,0.148
			h0.019c-1.133,4.046,0.983,8.333,6.385,11.453c8.934,5.154,23.417,5.154,32.354,0
			C1063.005,501.07,1065.115,496.783,1063.988,492.737z"/>
		<path id="XMLID_595_" fill="#FF8B00" stroke="#4D4D4D" stroke-miterlimit="10" d="M1129.218,312.846h-87.791h-87.788
			c0,0-2.283,59.103,62.537,109.322c1.255,1.266,2.786,2.461,4.654,3.541c11.376,6.567,29.816,6.567,41.191,0l0,0l0,0
			c1.868-1.08,3.401-2.275,4.654-3.541C1131.501,371.949,1129.218,312.846,1129.218,312.846z"/>
		<path id="XMLID_593_" fill="none" stroke="#4D4D4D" stroke-miterlimit="10" d="M1129.58,312.846h-87.788H954
			c0,0-2.283,59.103,62.539,109.322c1.255,1.266,2.788,2.461,4.656,3.541c11.376,6.567,29.814,6.567,41.191,0l0,0l0,0
			c1.87-1.08,3.399-2.275,4.654-3.541C1131.863,371.949,1129.58,312.846,1129.58,312.846z"/>
		<path id="XMLID_564_" fill="#FFE36E" stroke="#4D4D4D" stroke-miterlimit="10" d="M1103.504,284.622
			c34.284,15.588,34.284,40.86,0,56.449c-34.284,15.588-89.868,15.588-124.152,0c-34.283-15.587-34.283-40.86,0-56.449
			C1013.636,269.035,1069.22,269.035,1103.504,284.622z"/>
		<path id="XMLID_589_" fill="#FF8B00" stroke="#4D4D4D" stroke-miterlimit="10" d="M1090.297,290.627
			c26.99,12.271,26.99,32.167,0,44.438s-70.749,12.271-97.739,0c-26.987-12.271-26.987-32.167,0-44.438
			C1019.548,278.356,1063.307,278.356,1090.297,290.627z"/>
	</g>
	<g id="XMLID_533_">
		<path id="XMLID_534_" fill="#FFFFFF" stroke="#4D4D4D" stroke-miterlimit="10" d="M1003.344,545.441l-22.606-13.05
			c-2.447-1.415-2.142-3.886,0.687-5.52l4.543-2.618c2.827-1.634,7.104-1.811,9.555-0.396l22.605,13.05
			c2.45,1.417,2.143,3.887-0.688,5.521l-4.539,2.618C1010.069,546.681,1005.793,546.856,1003.344,545.441z"/>
	</g>
</g>
<g id="XMLID_922_">
	<g id="XMLID_626_">
		<path id="XMLID_642_" fill="#666666" stroke="#4D4D4D" stroke-miterlimit="10" d="M1282.573,631.317L1282.573,631.317v-0.005
			c-0.072-0.212-0.136-0.423-0.225-0.635l-5.112-15.718c-0.093-0.256-0.318-0.44-0.59-0.479l-20.243-2.815
			c-0.095-0.012-0.185-0.042-0.268-0.092l-53.004-30.879c-9.796-5.658-26.907-4.947-38.223,1.587l-44.95,25.778
			c-0.143,0.081-0.305,0.115-0.466,0.091l-11.003-1.529c-0.342-0.046-0.672,0.148-0.79,0.478l-4.843,14.687
			c-0.852,1.426-1.381,2.88-1.555,4.323l0,0l0,0c-0.478,3.979,1.664,7.844,6.545,10.663l73.314,42.604
			c9.799,5.659,26.91,4.948,38.223-1.58l54.316-31.191C1281.248,642.248,1284.279,636.404,1282.573,631.317z"/>
		<path id="XMLID_640_" fill="#CCCCCC" stroke="#4D4D4D" stroke-miterlimit="10" d="M1180.58,658.424l-67.146-39.043
			c-9.371-5.411-8.192-14.859,2.624-21.106l51.104-29.333c10.82-6.246,27.186-6.927,36.555-1.517l67.146,39.044
			c9.37,5.412,8.197,14.858-2.622,21.108l-51.106,29.333C1206.317,663.154,1189.949,663.832,1180.58,658.424z"/>
		<g id="XMLID_627_">
			<g>
				<path id="XMLID_628_" fill="#FFFFFF" stroke="#4D4D4D" stroke-miterlimit="10" d="M1180.58,658.922l-67.146-39.045
					c-9.371-5.408-8.192-14.86,2.624-21.104l51.104-29.333c10.82-6.249,27.186-6.928,36.555-1.517l67.146,39.045
					c9.37,5.407,8.197,14.857-2.622,21.104l-51.106,29.334C1206.317,663.653,1189.949,664.331,1180.58,658.922z"/>
			</g>
		</g>
	</g>
	<g id="XMLID_919_">
		<path id="XMLID_920_" fill="#FFFFFF" stroke="#4D4D4D" stroke-miterlimit="10" d="M1169.229,638.461l-22.606-13.051
			c-2.449-1.412-2.145-3.882,0.687-5.517l4.54-2.622c2.828-1.634,7.106-1.812,9.559-0.396l22.604,13.051
			c2.449,1.415,2.145,3.886-0.685,5.521l-4.542,2.622C1175.955,639.698,1171.677,639.876,1169.229,638.461z"/>
	</g>
	<g id="XMLID_769_">
		<g id="XMLID_625_">
			<g id="XMLID_786_">
				<path id="XMLID_789_" fill="#FF9933" stroke="#4D4D4D" stroke-miterlimit="10" d="M1234.181,608.909L1234.181,608.909
					L1234.181,608.909c-0.025-0.081-0.051-0.162-0.085-0.241l-1.939-10.624c-0.033-0.101-0.122-0.169-0.225-0.186l-7.683-1.067
					c-0.037-0.005-0.069-0.016-0.101-0.033l-20.114-11.719c-3.718-2.147-10.211-1.878-14.505,0.602l-17.057,9.783
					c-0.056,0.03-0.118,0.043-0.181,0.033l-4.174-0.58c-0.13-0.018-0.257,0.057-0.3,0.182l-1.838,10.233
					c-0.323,0.542-0.522,1.093-0.59,1.64l0,0l0,0c-0.183,1.511,0.632,2.979,2.481,4.047l27.821,16.168
					c3.72,2.147,10.215,1.88,14.506-0.602l20.613-11.834C1233.678,613.056,1234.828,610.84,1234.181,608.909z"/>
				<path id="XMLID_787_" fill="#FFE36E" stroke="#4D4D4D" stroke-miterlimit="10" d="M1195.475,614.536l-25.479-14.817
					c-3.557-2.054-3.108-5.641,0.995-8.009l19.391-11.132c4.107-2.371,10.32-2.629,13.874-0.575l25.483,14.815
					c3.553,2.055,3.107,5.638-0.999,8.009l-19.392,11.134C1205.241,616.332,1199.032,616.588,1195.475,614.536z"/>
			</g>
			<path id="XMLID_785_" fill="#FF9933" stroke="#4D4D4D" stroke-miterlimit="10" d="M1218.574,593.18h0.017
				c0,0-0.018-0.044-0.043-0.114c-0.051-0.174-0.114-0.343-0.182-0.512c-1.4-4.052-8.996-54.057-8.996-86.489l-8.623,0.971
				l-8.626-0.971c0,32.441-7.603,82.448-8.997,86.492c-0.067,0.17-0.13,0.335-0.178,0.506c-0.028,0.069-0.043,0.117-0.043,0.117
				h0.011c-0.891,3.197,0.778,6.588,5.045,9.054c7.063,4.075,18.51,4.075,25.571,0C1217.8,599.768,1219.471,596.377,1218.574,593.18
				z"/>
		</g>
		<path id="XMLID_797_" fill="#FF9933" stroke="#4D4D4D" stroke-miterlimit="10" d="M1243.314,401.084h-42.408h-42.411
			c0,0-1.06,59.845,22.022,108.074l0.065-0.004c0.328,2.482,2.285,4.919,5.904,6.813c7.964,4.175,20.87,4.175,28.832,0
			c3.62-1.896,5.577-4.331,5.902-6.813l0.065,0.004C1244.371,460.929,1243.314,401.084,1243.314,401.084z"/>
		<path id="XMLID_790_" fill="#FFE36E" stroke="#4D4D4D" stroke-miterlimit="10" d="M1230.895,386.549
			c16.561,8.029,16.561,21.043,0,29.07c-16.563,8.028-43.416,8.028-59.979,0c-16.561-8.027-16.561-21.041,0-29.07
			C1187.479,378.523,1214.331,378.523,1230.895,386.549z"/>
		<g id="XMLID_812_">
			<g>
				<path id="XMLID_828_" fill="#FF9933" d="M1221.703,391.005c11.486,5.567,11.486,14.593,0,20.159s-30.108,5.566-41.595,0
					c-11.485-5.566-11.485-14.592,0-20.159C1191.595,385.438,1210.217,385.438,1221.703,391.005z"/>
			</g>
			<g>
				<path id="XMLID_1_" fill="none" stroke="#4D4D4D" stroke-miterlimit="10" d="M1221.703,391.005
					c11.486,5.567,11.486,14.593,0,20.159s-30.108,5.566-41.595,0c-11.485-5.566-11.485-14.592,0-20.159
					C1191.595,385.438,1210.217,385.438,1221.703,391.005z"/>
			</g>
		</g>
	</g>
</g>
<circle opacity="0.5" fill="#FBB040" enable-background="new    " cx="928.325" cy="316.433" r="4.476"/>
<circle opacity="0.5" fill="#FBB040" enable-background="new    " cx="988.084" cy="258.933" r="4.476"/>
<ellipse opacity="0.5" fill="#FBB040" enable-background="new    " cx="840.059" cy="520.517" rx="10.363" ry="7.656"/>
<ellipse opacity="0.5" fill="#FBB040" enable-background="new    " cx="561.116" cy="546.397" rx="10.362" ry="7.656"/>
<ellipse opacity="0.5" fill="#FBB040" enable-background="new    " cx="807.899" cy="601.394" rx="10.362" ry="7.656"/>
<ellipse opacity="0.5" fill="#FBB040" enable-background="new    " cx="972.316" cy="683.194" rx="10.362" ry="7.656"/>
<ellipse opacity="0.5" fill="#FBB040" enable-background="new    " cx="1041.791" cy="634.561" rx="14.643" ry="10.818"/>
<ellipse opacity="0.5" fill="#FBB040" enable-background="new    " cx="1371.354" cy="580.199" rx="14.644" ry="10.818"/>
<ellipse opacity="0.5" fill="#FBB040" enable-background="new    " cx="886.729" cy="554.968" rx="9.668" ry="7.144"/>
<ellipse opacity="0.5" fill="#FBB040" enable-background="new    " cx="824.201" cy="588.771" rx="5.494" ry="4.06"/>
<ellipse opacity="0.5" fill="#FBB040" enable-background="new    " cx="892.223" cy="617.344" rx="5.494" ry="4.06"/>
<ellipse opacity="0.5" fill="#FBB040" enable-background="new    " cx="666" cy="623.743" rx="5.494" ry="4.06"/>
<ellipse opacity="0.5" fill="#FBB040" enable-background="new    " cx="194.5" cy="562.591" rx="5.494" ry="4.06"/>
<ellipse opacity="0.5" fill="#FBB040" enable-background="new    " cx="281" cy="566.649" rx="5.494" ry="4.06"/>
<ellipse opacity="0.5" fill="#FBB040" enable-background="new    " cx="723" cy="528.173" rx="9.668" ry="7.144"/>
<ellipse opacity="0.5" fill="#00AEEF" enable-background="new    " cx="851.355" cy="518.197" rx="9.669" ry="7.144"/>
<ellipse opacity="0.5" fill="#00AEEF" enable-background="new    " cx="581.148" cy="606.094" rx="9.668" ry="7.144"/>
<ellipse opacity="0.5" fill="#00AEEF" enable-background="new    " cx="461" cy="567.271" rx="6.335" ry="4.681"/>
<ellipse opacity="0.5" fill="#00AEEF" enable-background="new    " cx="897.886" cy="610.2" rx="9.668" ry="7.144"/>
<ellipse opacity="0.5" fill="#00AEEF" enable-background="new    " cx="730.566" cy="573.684" rx="5.348" ry="3.951"/>
<ellipse opacity="0.5" fill="#00AEEF" enable-background="new    " cx="329.317" cy="584.564" rx="5.348" ry="3.951"/>
<ellipse opacity="0.5" fill="#00AEEF" enable-background="new    " cx="1158.496" cy="535.067" rx="9.668" ry="7.144"/>
<ellipse opacity="0.5" fill="#00AEEF" enable-background="new    " cx="1314.658" cy="579.888" rx="9.668" ry="7.144"/>
<ellipse opacity="0.5" fill="#00AEEF" enable-background="new    " cx="1144.968" cy="690.338" rx="9.668" ry="7.144"/>
<ellipse opacity="0.5" fill="#FBB040" enable-background="new    " cx="962.648" cy="598.95" rx="9.668" ry="7.144"/>
<ellipse opacity="0.5" fill="#FBB040" enable-background="new    " cx="1075.784" cy="690.338" rx="9.668" ry="7.144"/>
<ellipse opacity="0.5" fill="#FBB040" enable-background="new    " cx="1285.766" cy="529.074" rx="9.668" ry="7.144"/>
<ellipse opacity="0.5" fill="#FBB040" enable-background="new    " cx="1271.923" cy="583.946" rx="5.494" ry="4.06"/>
<ellipse opacity="0.5" fill="#FBB040" enable-background="new    " cx="1361.686" cy="573.057" rx="9.668" ry="7.144"/>
<circle opacity="0.5" fill="#FBB040" enable-background="new    " cx="1083.953" cy="240.253" r="4.476"/>
<circle opacity="0.5" fill="#FBB040" enable-background="new    " cx="1247.789" cy="358.625" r="4.476"/>
<circle opacity="0.5" fill="#FBB040" enable-background="new    " cx="1032.645" cy="194.266" r="4.476"/>
<circle opacity="0.5" fill="#FBB040" enable-background="new    " cx="1122.039" cy="452.934" r="4.476"/>
<circle opacity="0.5" fill="#FBB040" enable-background="new    " cx="1153.404" cy="292.933" r="4.476"/>
<circle opacity="0.5" fill="#FBB040" enable-background="new    " cx="1056.128" cy="108.267" r="4.476"/>
<circle opacity="0.5" fill="#FBB040" enable-background="new    " cx="1124.015" cy="162.867" r="4.476"/>
<circle opacity="0.5" fill="#FBB040" enable-background="new    " cx="1047.653" cy="135.495" r="2.476"/>
<circle opacity="0.5" fill="#FBB040" enable-background="new    " cx="1266.128" cy="464.548" r="2.476"/>
<circle opacity="0.5" fill="#FBB040" enable-background="new    " cx="923.325" cy="471.836" r="2.476"/>
<g>
	<ellipse opacity="0.5" fill="#FBB040" enable-background="new    " cx="920.824" cy="403.526" rx="9" ry="2.5"/>
	<ellipse opacity="0.5" fill="#FBB040" enable-background="new    " cx="920.825" cy="403.527" rx="2.5" ry="9"/>
</g>
<g>
	<ellipse opacity="0.5" fill="#FBB040" enable-background="new    " cx="988.084" cy="228.526" rx="9" ry="2.5"/>
	<ellipse opacity="0.5" fill="#FBB040" enable-background="new    " cx="988.085" cy="228.526" rx="2.5" ry="9"/>
</g>
<g>
	<ellipse opacity="0.5" fill="#FBB040" enable-background="new    " cx="1286.189" cy="407.654" rx="9" ry="2.5"/>
	<ellipse opacity="0.5" fill="#FBB040" enable-background="new    " cx="1286.191" cy="407.654" rx="2.5" ry="9"/>
</g>
<g>
	<ellipse opacity="0.5" fill="#FBB040" enable-background="new    " cx="1073.282" cy="176.342" rx="9" ry="2.5"/>
	<ellipse opacity="0.5" fill="#FBB040" enable-background="new    " cx="1073.283" cy="176.342" rx="2.5" ry="9"/>
</g>
<g>
	<ellipse opacity="0.5" fill="#FBB040" enable-background="new    " cx="1110.539" cy="89.407" rx="9" ry="2.5"/>
	<ellipse opacity="0.5" fill="#FBB040" enable-background="new    " cx="1110.54" cy="89.407" rx="2.5" ry="9"/>
</g>
<g>
	<ellipse opacity="0.5" fill="#FBB040" enable-background="new    " cx="925.824" cy="283.932" rx="9" ry="2.5"/>
	<ellipse opacity="0.5" fill="#FBB040" enable-background="new    " cx="925.825" cy="283.933" rx="2.5" ry="9"/>
</g>
<g>
	<ellipse opacity="0.5" fill="#FBB040" enable-background="new    " cx="1101.239" cy="258.932" rx="9" ry="2.5"/>
	<ellipse opacity="0.5" fill="#FBB040" enable-background="new    " cx="1101.24" cy="258.933" rx="2.5" ry="9"/>
</g>
<g>
	<ellipse opacity="0.5" fill="#FBB040" enable-background="new    " cx="1180.494" cy="329.908" rx="9" ry="2.5"/>
	<ellipse opacity="0.5" fill="#FBB040" enable-background="new    " cx="1180.495" cy="329.909" rx="2.5" ry="9"/>
</g>
<g>
	<ellipse opacity="0.5" fill="#FBB040" enable-background="new    " cx="938.8" cy="352.761" rx="5.863" ry="1.629"/>
	<ellipse opacity="0.5" fill="#FBB040" enable-background="new    " cx="938.8" cy="352.762" rx="1.628" ry="5.863"/>
</g>
<g>
	<ellipse opacity="0.5" fill="#FBB040" enable-background="new    " cx="870.127" cy="433.736" rx="5.863" ry="1.629"/>
	<ellipse opacity="0.5" fill="#FBB040" enable-background="new    " cx="870.127" cy="433.736" rx="1.628" ry="5.863"/>
</g>
<g>
	<ellipse opacity="0.5" fill="#FBB040" enable-background="new    " cx="1132.967" cy="406.026" rx="5.863" ry="1.628"/>
	<ellipse opacity="0.5" fill="#FBB040" enable-background="new    " cx="1132.967" cy="406.026" rx="1.628" ry="5.863"/>
</g>
<g>
	<ellipse opacity="0.5" fill="#FBB040" enable-background="new    " cx="1131.339" cy="222.662" rx="5.863" ry="1.629"/>
	<ellipse opacity="0.5" fill="#FBB040" enable-background="new    " cx="1131.339" cy="222.663" rx="1.628" ry="5.863"/>
</g>
<g>
	<ellipse opacity="0.5" fill="#FBB040" enable-background="new    " cx="1041.79" cy="234.389" rx="5.863" ry="1.629"/>
	<ellipse opacity="0.5" fill="#FBB040" enable-background="new    " cx="1041.791" cy="234.39" rx="1.628" ry="5.863"/>
</g>
<g>
	<ellipse opacity="0.5" fill="#FBB040" enable-background="new    " cx="1224.672" cy="297.408" rx="5.863" ry="1.629"/>
	<ellipse opacity="0.5" fill="#FBB040" enable-background="new    " cx="1224.672" cy="297.408" rx="1.628" ry="5.863"/>
</g>
<g>
	<ellipse opacity="0.5" fill="#FBB040" enable-background="new    " cx="1012.708" cy="141.599" rx="5.863" ry="1.629"/>
	<ellipse opacity="0.5" fill="#FBB040" enable-background="new    " cx="1012.708" cy="141.599" rx="1.628" ry="5.863"/>
</g>
<g>
	<ellipse opacity="0.5" fill="#FBB040" enable-background="new    " cx="1019.779" cy="60" rx="5.862" ry="1.629"/>
	<ellipse opacity="0.5" fill="#FBB040" enable-background="new    " cx="1019.78" cy="60" rx="1.628" ry="5.863"/>
</g>
<g>
	<ellipse opacity="0.5" fill="#FBB040" enable-background="new    " cx="1313.028" cy="503.773" rx="5.862" ry="1.629"/>
	<ellipse opacity="0.5" fill="#FBB040" enable-background="new    " cx="1313.029" cy="503.773" rx="1.628" ry="5.863"/>
</g>
</svg>
